<?xml version="1.0" encoding="UTF-8"?>
<svg version="1.1" xmlns="http://www.w3.org/2000/svg" width="1536" height="672">
<path d="M0 0 C506.88 0 1013.76 0 1536 0 C1536 221.76 1536 443.52 1536 672 C1029.12 672 522.24 672 0 672 C0 450.24 0 228.48 0 0 Z " fill="#E9E9E9" transform="translate(0,0)"/>
<path d="M0 0 C1.10346771 -0.00206451 2.20693542 -0.00412903 3.34384155 -0.0062561 C31.31991945 0.00306413 59.1726626 2.86324652 86.1875 10.4375 C91.12359209 11.78697216 96.04995689 12.97054222 101.0625 14 C105.56443787 14.93853108 109.8332102 16.04060562 114.16015625 17.58203125 C116.71851643 18.44799861 119.29959201 19.19056513 121.89892578 19.92260742 C130.91141335 22.47524612 139.77166259 25.44744828 148.625 28.5 C149.85702148 28.9235376 151.08904297 29.3470752 152.35839844 29.78344727 C158.47946755 31.90792068 164.54104768 34.11630499 170.5402832 36.56420898 C173.44342147 37.74493958 176.37782304 38.83792484 179.3125 39.9375 C183.674414 41.60137565 187.80129835 43.43763261 191.9296875 45.60546875 C193.92419108 46.60800699 193.92419108 46.60800699 197.1875 47.4375 C200.65673428 48.4287098 203.4773303 49.77688752 206.65625 51.43359375 C209.25241817 52.71669994 211.91415566 53.68214815 214.63671875 54.66015625 C216.78701834 55.47522219 218.85102137 56.40882881 220.9375 57.375 C225.35505661 59.37813343 229.87162878 60.87256229 234.5 62.3125 C237.03029736 63.20554613 239.36417239 64.18378905 241.79296875 65.3046875 C247.38347317 67.83336252 253.16631371 69.68112723 259 71.5625 C261.12199824 72.24981791 263.2431313 72.93981421 265.36328125 73.6328125 C266.29052002 73.93203613 267.21775879 74.23125977 268.1730957 74.53955078 C270.46071409 75.35650975 272.52848068 76.33489845 274.6875 77.4375 C276.25908878 77.85901885 277.84379082 78.2343834 279.4375 78.5625 C280.23671875 78.73007813 281.0359375 78.89765625 281.859375 79.0703125 C282.46265625 79.19148438 283.0659375 79.31265625 283.6875 79.4375 C283.6875 80.0975 283.6875 80.7575 283.6875 81.4375 C284.37972656 81.52386719 285.07195313 81.61023438 285.78515625 81.69921875 C291.53889863 82.52551377 296.83499607 83.73169779 302.3125 85.6875 C312.59737598 89.28667259 323.23616804 91.44483481 333.86181641 93.79443359 C336.25136768 94.33824542 338.61865497 94.92743773 340.98828125 95.55078125 C344.80964385 96.46677841 348.53398756 96.99855081 352.4375 97.4375 C357.15327246 97.97208149 361.78891158 98.62412271 366.4609375 99.4609375 C372.5014111 100.48413526 378.44488198 100.87581098 384.5625 101.0625 C385.63604736 101.09899658 386.70959473 101.13549316 387.81567383 101.1730957 C391.10609012 101.27638231 394.39634347 101.36163034 397.6875 101.4375 C398.69893066 101.46086426 399.71036133 101.48422852 400.75244141 101.50830078 C420.09173662 102.03676079 420.09173662 102.03676079 438.6875 97.4375 C440.35163538 97.11178929 442.01862735 96.80049642 443.6875 96.5 C457.97591777 93.01199715 472.09432327 84.52103936 482.6875 74.4375 C483.45835937 73.74398437 484.22921875 73.05046875 485.0234375 72.3359375 C497.78233298 60.36086495 505.67083511 44.65633579 511.6875 28.4375 C512.0175 28.4375 512.3475 28.4375 512.6875 28.4375 C513.68513021 62.91116625 504.05204615 94.33516304 480.98046875 120.36328125 C460.1134809 142.44877934 429.18238219 152.78680272 399.4765625 153.71875 C357.67162657 154.47203955 316.87564076 145.59867369 277.57421875 131.75 C274.63644203 130.72160349 271.77054263 129.92980222 268.6875 129.4375 C268.43742188 130.28054687 268.18734375 131.12359375 267.9296875 131.9921875 C258.67542358 157.65967422 234.48951937 171.92338913 211.21337891 183.26416016 C205.18156987 186.06610045 198.97278912 188.27541598 192.6875 190.4375 C191.36190953 190.9338519 190.03772512 191.43397227 188.71484375 191.9375 C184.86760925 193.38827149 180.98315761 194.69981786 177.0625 195.9375 C175.18691406 196.54078125 175.18691406 196.54078125 173.2734375 197.15625 C107.90131853 216.41929475 34.0736563 211.36235359 -31.90551758 197.91113281 C-35.30938022 197.24133937 -38.7274583 196.66884618 -42.1484375 196.09399414 C-54.25998604 194.05737958 -66.27562232 191.66696153 -78.28222656 189.08740234 C-81.38205986 188.42258151 -84.48386002 187.76754285 -87.5859375 187.11328125 C-89.61990075 186.6801995 -91.65375873 186.24662299 -93.6875 185.8125 C-94.60789062 185.61857666 -95.52828125 185.42465332 -96.4765625 185.22485352 C-101.74057217 184.08922424 -106.87041012 182.7366335 -112.00415039 181.10791016 C-116.36382156 179.84173807 -120.83925426 179.17843316 -125.3125 178.4375 C-133.80370028 177.01802442 -142.20673472 175.52174707 -150.5625 173.4375 C-157.81059243 171.64138486 -165.07212089 170.49219793 -172.47949219 169.56445312 C-177.32378862 168.94000052 -182.02318045 168.07424045 -186.78515625 166.98046875 C-195.46983251 165.0677757 -204.22436344 164.20486324 -213.0625 163.3125 C-215.51605229 163.06059426 -217.96932462 162.80648637 -220.42218018 162.54788208 C-221.9330976 162.38896514 -223.44444455 162.23406676 -224.95623779 162.08370972 C-230.08892479 161.54928761 -230.08892479 161.54928761 -232.3125 160.4375 C-237.25450757 159.90871301 -242.22608307 159.66472367 -247.1875 159.375 C-248.3119603 159.30871399 -248.3119603 159.30871399 -249.45913696 159.24108887 C-291.86087872 156.80510228 -332.62312447 160.22372958 -374.3125 168.4375 C-375.09915039 168.59186523 -375.88580078 168.74623047 -376.69628906 168.90527344 C-386.90182698 170.94465639 -396.74009839 173.69237247 -406.62890625 176.92578125 C-411.16237435 178.4061934 -415.72938235 179.74548858 -420.3125 181.0625 C-426.7537677 182.93131275 -433.05375658 185.02747142 -439.3125 187.4375 C-440.34761719 187.82808594 -441.38273437 188.21867188 -442.44921875 188.62109375 C-445.74517524 189.87316716 -449.03080214 191.14854397 -452.3125 192.4375 C-453.27929688 192.81648437 -454.24609375 193.19546875 -455.2421875 193.5859375 C-465.17044318 197.59490795 -474.9309113 202.25691203 -484.16796875 207.68359375 C-487.3125 209.4375 -487.3125 209.4375 -489.3125 209.4375 C-487.79955075 205.73453581 -485.6319126 203.7174836 -482.625 201.125 C-479.60204378 198.47775405 -476.65818308 195.83552316 -473.875 192.9375 C-469.37042257 188.3589037 -464.32055707 184.44533485 -459.3125 180.4375 C-458.08853516 179.43009766 -458.08853516 179.43009766 -456.83984375 178.40234375 C-450.26321011 173.023406 -443.37177894 168.15512508 -436.3125 163.4375 C-435.75546387 163.0647998 -435.19842773 162.69209961 -434.62451172 162.30810547 C-415.33228079 149.47818695 -394.6294191 138.01175165 -372.3125 131.4375 C-370.78944879 130.94429717 -369.26849718 130.44455063 -367.75 129.9375 C-367.02039063 129.69773438 -366.29078125 129.45796875 -365.5390625 129.2109375 C-364.04131068 128.69066581 -362.55629047 128.13236282 -361.0859375 127.5390625 C-352.76751283 124.23810033 -344.14177281 122.48066549 -335.421875 120.5859375 C-332.52164965 119.95345274 -329.72428322 119.26304025 -326.875 118.41796875 C-321.82961914 117.02938257 -316.72308863 116.2190515 -311.5625 115.375 C-310.5415625 115.20162109 -309.520625 115.02824219 -308.46875 114.84960938 C-307.45296875 114.68138672 -306.4371875 114.51316406 -305.390625 114.33984375 C-304.48731445 114.19023193 -303.58400391 114.04062012 -302.65332031 113.88647461 C-294.34923633 112.77048437 -286.00802649 112.24344266 -277.640625 111.89453125 C-276.65306213 111.85310501 -275.66549927 111.81167877 -274.64801025 111.76899719 C-263.45456664 111.32771996 -252.2641205 111.15226819 -241.0625 111.125 C-239.97707916 111.12204926 -238.89165833 111.11909851 -237.77334595 111.11605835 C-221.93866824 111.10639435 -206.2633929 111.74267579 -190.5 113.25 C-189.17941589 113.37415787 -189.17941589 113.37415787 -187.83215332 113.50082397 C-178.49176131 114.40242789 -169.4323961 115.67476032 -160.28149414 117.77954102 C-156.49999771 118.61755868 -152.78832118 119.09109837 -148.9375 119.5 C-144.33941268 119.99164885 -140.02491346 120.72816568 -135.55371094 121.90454102 C-130.96328653 122.99614194 -126.28294198 123.63851592 -121.625 124.375 C-114.14646872 125.58704949 -106.76136657 126.90121953 -99.40234375 128.71875 C-94.28653673 129.90877338 -89.11350979 130.78230761 -83.94140625 131.69140625 C-80.3125 132.4375 -80.3125 132.4375 -77.34375 133.4375 C-73.6970217 134.64054439 -70.02880575 135.26370369 -66.25 135.875 C-56.2690493 137.57657883 -46.57358924 139.66023646 -36.9375 142.8125 C-30.16816051 145.01400693 -23.32854925 146.67228215 -16.375 148.1875 C-15.41609863 148.39810059 -14.45719727 148.60870117 -13.46923828 148.82568359 C-8.39538781 149.90254287 -3.39693258 150.700676 1.76342773 151.20898438 C4.18319147 151.49637162 6.41983532 152.10776727 8.75 152.8125 C17.80897943 155.19950615 27.16899524 155.95120615 36.45402527 157.02159119 C39.52851711 157.41705067 42.55936793 157.93337168 45.61230469 158.4675293 C53.08135121 159.62207528 60.44603575 159.72854754 67.98828125 159.703125 C69.43678349 159.70447906 70.88528529 159.70642568 72.33378601 159.70892334 C75.35676437 159.71185021 78.37962355 159.70766341 81.40258789 159.69824219 C85.19985658 159.68696028 88.99684135 159.69353368 92.79409981 159.70513248 C113.17372862 159.75778424 133.57986847 159.59546845 153.69775391 155.95532227 C156.63574967 155.44646313 159.56200521 155.05948686 162.5234375 154.71484375 C163.59464844 154.58650146 164.66585937 154.45815918 165.76953125 154.32592773 C167.92518719 154.07165367 170.08142762 153.82227533 172.23828125 153.57836914 C177.33227619 152.97480941 181.84002715 152.16264934 186.6875 150.4375 C190.79564242 149.52181861 194.94100954 148.78677871 199.08007812 148.02539062 C204.11232487 147.06339981 208.86564609 145.80867026 213.7019043 144.11791992 C216.16605149 143.27351094 218.65094161 142.65079818 221.1875 142.0625 C230.86820268 139.7004575 240.40528273 136.81612349 249.89453125 133.78125 C251.18701782 133.36806519 251.18701782 133.36806519 252.50561523 132.9465332 C254.18232819 132.40780131 255.8576813 131.8648146 257.53149414 131.31713867 C258.29196045 131.0719751 259.05242676 130.82681152 259.8359375 130.57421875 C260.50802246 130.35467529 261.18010742 130.13513184 261.87255859 129.90893555 C263.6875 129.4375 263.6875 129.4375 266.6875 129.4375 C265.296272 126.65504399 263.83179927 126.54987029 260.9375 125.484375 C259.94435791 125.11530029 258.95121582 124.74622559 257.92797852 124.3659668 C256.85862061 123.97707275 255.7892627 123.58817871 254.6875 123.1875 C253.60202881 122.78635986 252.51655762 122.38521973 251.39819336 121.97192383 C244.34074126 119.37361902 237.25434017 116.86391946 230.15063477 114.39550781 C226.02663394 112.9500549 222.05783715 111.33502168 218.09765625 109.49609375 C208.3082856 105.19638638 198.09035826 101.85312862 187.94140625 98.51953125 C184.85658713 97.49372705 181.81869859 96.39622493 178.78515625 95.23046875 C174.81903933 93.73117316 170.81387671 92.33885996 166.81640625 90.92578125 C163.99581189 89.92002471 161.19615661 88.87076907 158.40234375 87.79296875 C76.76728409 56.65938312 -17.71420458 38.31742727 -103.3125 63.4375 C-104.24980957 63.70288574 -105.18711914 63.96827148 -106.15283203 64.24169922 C-125.55930051 69.74178761 -144.59019772 76.49779774 -162.87036133 85.05053711 C-168.01654329 87.4375 -168.01654329 87.4375 -171.3125 87.4375 C-171.3125 88.0975 -171.3125 88.7575 -171.3125 89.4375 C-171.86035156 89.62183594 -172.40820312 89.80617188 -172.97265625 89.99609375 C-179.48456447 92.37849919 -185.19075001 95.6019055 -191.04516602 99.26342773 C-194.38303936 101.34017982 -197.60213023 103.122969 -201.3125 104.4375 C-199.7076603 100.58953209 -197.13051477 97.80880498 -194.3125 94.8125 C-193.80283691 94.26634033 -193.29317383 93.72018066 -192.76806641 93.1574707 C-187.82181304 87.90180477 -182.76568936 82.75287611 -177.6875 77.625 C-176.8934375 76.81788574 -176.099375 76.01077148 -175.28125 75.17919922 C-174.53617188 74.43299316 -173.79109375 73.68678711 -173.0234375 72.91796875 C-172.02256104 71.91092896 -172.02256104 71.91092896 -171.00146484 70.88354492 C-169.3125 69.4375 -169.3125 69.4375 -167.3125 69.4375 C-167.3125 68.7775 -167.3125 68.1175 -167.3125 67.4375 C-165.69867052 65.98090023 -164.01886784 64.59701049 -162.3125 63.25 C-158.96618104 60.59618315 -155.70095374 57.91140025 -152.51171875 55.0703125 C-148.22526605 51.29817308 -143.72944521 47.87279962 -139.125 44.5 C-138.28912354 43.88737305 -137.45324707 43.27474609 -136.59204102 42.64355469 C-130.0195904 37.87025947 -123.36337008 33.48174182 -116.3125 29.4375 C-115.6230127 29.03547363 -114.93352539 28.63344727 -114.22314453 28.21923828 C-104.83514201 22.75834985 -95.63329694 17.92036956 -85.3125 14.4375 C-83.47774113 13.79332026 -81.64311843 13.14875263 -79.80859375 12.50390625 C-53.15256119 3.25270754 -28.1724666 0.00132256 0 0 Z " fill="#586063" transform="translate(738.3125,110.5625)"/>
<path d="M0 0 C1.64135674 0.00212242 1.64135674 0.00212242 3.31587219 0.00428772 C6.76920447 0.00983094 10.22246897 0.02237246 13.67578125 0.03515625 C16.03450426 0.0401786 18.39322831 0.04474021 20.75195312 0.04882812 C26.49741848 0.05978169 32.24284502 0.07646212 37.98828125 0.09765625 C37.37256114 3.38606881 36.70524042 5.99626759 35.0625 8.91796875 C34.48846436 9.96005493 34.48846436 9.96005493 33.90283203 11.02319336 C33.29544189 12.11192749 33.29544189 12.11192749 32.67578125 13.22265625 C29.1588294 19.6961969 26.16884493 26.03892435 23.98828125 33.09765625 C23.73820312 33.8659375 23.488125 34.63421875 23.23046875 35.42578125 C21.57747785 40.68055232 20.21222555 46.00849089 18.86328125 51.34765625 C18.69248047 52.02143311 18.52167969 52.69520996 18.34570312 53.3894043 C16.58719261 60.46986123 15.79652833 67.21172501 15.48828125 74.47265625 C15.23420261 80.40115774 14.79937236 86.21724574 13.98828125 92.09765625 C9.41858896 91.4819359 4.92731034 90.71850985 0.41796875 89.7578125 C-1.4228125 89.37012695 -1.4228125 89.37012695 -3.30078125 88.97460938 C-5.83485302 88.43657072 -8.36871163 87.89752706 -10.90234375 87.35742188 C-29.18866914 83.51118538 -47.09656853 81.82022951 -65.76171875 81.72265625 C-67.04431076 81.71581314 -67.04431076 81.71581314 -68.35281372 81.70883179 C-85.12787879 81.67768014 -101.74975037 82.90039933 -118.44921875 84.41015625 C-119.63004028 84.51684631 -120.81086182 84.62353638 -122.02746582 84.73345947 C-135.78521133 85.99493316 -149.51672595 87.43943791 -163.23069763 89.11262512 C-170.46421499 89.98057701 -177.67156386 90.53591196 -184.95167542 90.80632019 C-188.12828606 90.92598446 -191.20925051 91.12738207 -194.35496521 91.60076904 C-197.76908513 92.06468669 -201.00375097 92.23698584 -204.44555664 92.25878906 C-205.68505569 92.26826065 -206.92455475 92.27773224 -208.20161438 92.28749084 C-209.54586657 92.29231444 -210.89012026 92.29673304 -212.234375 92.30078125 C-213.64637792 92.30770344 -215.05838047 92.31469863 -216.47038269 92.32176208 C-221.00499738 92.34110519 -225.53956773 92.34568508 -230.07421875 92.34765625 C-230.84197128 92.34839268 -231.60972382 92.3491291 -232.40074158 92.34988785 C-251.04652108 92.36451125 -269.66747691 92.34693221 -288.26171875 90.78515625 C-289.34273361 90.69687561 -289.34273361 90.69687561 -290.44558716 90.60681152 C-299.19905332 89.8635915 -307.76978448 88.49887052 -316.38085938 86.80053711 C-319.34076891 86.22754225 -322.28779719 85.72038565 -325.26953125 85.28125 C-354.54686772 80.87814889 -383.1631025 71.96053785 -411.01171875 62.09765625 C-412.24825195 61.65977783 -413.48478516 61.22189941 -414.75878906 60.77075195 C-434.28348729 53.82588771 -434.28348729 53.82588771 -437.01171875 51.09765625 C-438.69870857 50.33989361 -440.41062508 49.63653843 -442.13671875 48.97265625 C-443.50183594 48.44285156 -443.50183594 48.44285156 -444.89453125 47.90234375 C-445.59320312 47.63679688 -446.291875 47.37125 -447.01171875 47.09765625 C-447.01171875 46.43765625 -447.01171875 45.77765625 -447.01171875 45.09765625 C-447.73359375 45.15953125 -448.45546875 45.22140625 -449.19921875 45.28515625 C-452.65392965 45.05484219 -454.07049047 43.92775385 -457.01171875 42.09765625 C-458.50647481 41.48123318 -460.01183575 40.89028186 -461.5234375 40.31640625 C-467.06203016 38.13613486 -472.33665934 35.54872357 -477.63671875 32.84765625 C-478.54550781 32.38875 -479.45429687 31.92984375 -480.390625 31.45703125 C-482.59956288 30.34093632 -484.80652174 29.22111906 -487.01171875 28.09765625 C-487.01171875 27.43765625 -487.01171875 26.77765625 -487.01171875 26.09765625 C-482.89050872 25.71129281 -479.91806679 26.7230014 -476.171875 28.24609375 C-470.18412029 30.60654678 -464.49446873 31.69592716 -458.1328125 32.53515625 C-455.15408237 33.07199873 -452.80698054 33.97615304 -450.01171875 35.09765625 C-447.48888437 35.65030343 -444.99000001 36.15087153 -442.44921875 36.59765625 C-441.80919922 36.71496094 -441.16917969 36.83226562 -440.50976562 36.953125 C-436.46342812 37.68738722 -432.40861063 38.36681124 -428.3515625 39.0390625 C-421.6050307 40.15861147 -414.87002205 41.33886529 -408.13671875 42.53515625 C-406.97269531 42.73947266 -405.80867187 42.94378906 -404.609375 43.15429688 C-398.76676656 44.19276715 -392.98065141 45.3251783 -387.19921875 46.6640625 C-379.13859737 48.41717743 -371.09575369 49.01302679 -362.88671875 49.59765625 C-359.68445127 49.83943176 -356.48279405 50.08868589 -353.28125 50.33984375 C-352.48869308 50.4014267 -351.69613617 50.46300964 -350.87956238 50.52645874 C-343.75741136 51.09167303 -336.6698231 51.89109226 -329.57421875 52.72265625 C-315.40392772 54.33180062 -301.26357234 54.84055727 -287.01171875 55.09765625 C-286.11517578 55.11957031 -285.21863281 55.14148438 -284.29492188 55.1640625 C-271.51133155 55.46532543 -258.73876775 54.93824054 -245.96759033 54.40493774 C-244.06583641 54.32620782 -242.16393759 54.25089007 -240.26190186 54.17929077 C-230.00780369 53.78444893 -220.24098897 53.04816767 -210.20532227 50.80883789 C-205.97859484 49.86759051 -201.73799554 49.29291298 -197.44921875 48.72265625 C-187.44798067 47.29487594 -177.67339543 45.15766104 -167.85791016 42.78466797 C-165.00953558 42.09712928 -162.15734266 41.42733801 -159.3046875 40.7578125 C-148.08964404 38.08205146 -137.02793769 34.99648191 -126.01171875 31.59765625 C-124.85599365 31.24219727 -123.70026855 30.88673828 -122.50952148 30.52050781 C-116.3587432 28.5884177 -110.30303146 26.49153316 -104.28125 24.1953125 C-95.51294095 20.85291652 -86.6293005 17.91284357 -77.69921875 15.03515625 C-76.88811646 14.7730838 -76.07701416 14.51101135 -75.24133301 14.24099731 C-50.41826751 6.23569622 -26.27666946 -0.13079318 0 0 Z " fill="#B15D5F" transform="translate(1071.01171875,285.90234375)"/>
<path d="M0 0 C1.77890625 0.82467773 1.77890625 0.82467773 3.59375 1.66601562 C6.4801277 3.0044569 9.36551849 4.34497843 12.25 5.6875 C12.25 6.3475 12.25 7.0075 12.25 7.6875 C12.97960937 7.96980469 13.70921875 8.25210937 14.4609375 8.54296875 C32.96264852 16.13540759 49.21313964 29.98983941 65.25 41.6875 C66.43987129 42.5524038 67.62995828 43.41701097 68.8203125 44.28125 C71.29843081 46.08121317 73.77510169 47.88311379 76.25 49.6875 C75.53688153 55.80144222 73.46574478 61.45044799 71.5 67.25 C70.959198 68.85766235 70.959198 68.85766235 70.4074707 70.49780273 C67.05871129 80.38372418 63.47029256 90.13631158 59.25 99.6875 C54.91808818 98.22229453 51.82676652 96.01314555 48.25 93.1875 C47.09515408 92.28242193 45.94020319 91.37747777 44.78515625 90.47265625 C44.19879395 90.01004395 43.61243164 89.54743164 43.00830078 89.07080078 C40.25072901 86.90134762 37.4698175 84.76256771 34.6875 82.625 C34.14569092 82.20839111 33.60388184 81.79178223 33.0456543 81.36254883 C6.87261607 61.25986961 -19.37921501 42.27601961 -49.96728516 29.4375 C-51.42847227 28.82276886 -52.87815983 28.18076964 -54.32421875 27.53125 C-69.29455218 22.3241775 -89.99851152 24.49180461 -104.015625 31.265625 C-110.38569241 34.81877818 -116.14391795 39.03935042 -121.75 43.6875 C-122.34167969 44.14511719 -122.93335938 44.60273438 -123.54296875 45.07421875 C-129.12868399 49.53512176 -133.35323465 55.09161682 -137.75 60.6875 C-138.35972656 61.44289063 -138.96945312 62.19828125 -139.59765625 62.9765625 C-145.42390144 70.27595852 -151.0593082 77.94133447 -155.125 86.375 C-156.75 89.6875 -156.75 89.6875 -158.75 90.6875 C-158.13709243 81.30033668 -157.25835086 72.45837716 -153.75 63.6875 C-153.48466667 62.29450003 -153.23735799 60.89803858 -153 59.5 C-147.39202895 30.37332868 -130.70148132 6.80039592 -106.48046875 -9.875 C-104.28848305 -11.21617672 -102.10418034 -12.28093428 -99.75 -13.3125 C-98.73035156 -13.7765625 -97.71070313 -14.240625 -96.66015625 -14.71875 C-64.21239701 -27.1853384 -29.43793172 -13.70329061 0 0 Z " fill="#586164" transform="translate(496.75,298.3125)"/>
<path d="M0 0 C0 0.66 0 1.32 0 2 C0.59167969 2.19335938 1.18335938 2.38671875 1.79296875 2.5859375 C5.9146645 3.94414719 9.9950524 5.32050585 14 7 C14 7.66 14 8.32 14 9 C14.680625 9.2475 15.36125 9.495 16.0625 9.75 C23.8049692 13.04466774 30.30106765 17.97818301 37 23 C37.73089844 23.54527344 38.46179687 24.09054687 39.21484375 24.65234375 C53.82711914 35.78161868 67.5710297 48.30366547 80.37524414 61.4597168 C81.99282912 62.99320194 83.68329669 64.21456966 85.5 65.5 C86.325 66.325 87.15 67.15 88 68 C87.63369781 73.07455852 86.37298397 77.97385549 85.15234375 82.90234375 C84.97619034 83.6249086 84.80003693 84.34747345 84.61854553 85.0919342 C84.06131361 87.37456523 83.49948806 89.65603582 82.9375 91.9375 C82.55633505 93.49536797 82.17547274 95.05331003 81.79492188 96.61132812 C80.86677664 100.40841719 79.93451309 104.20447336 79 108 C75.05388362 107.17901682 73.20490962 105.65110936 70.25 102.875 C69.363125 102.05386719 68.47625 101.23273438 67.5625 100.38671875 C66.716875 99.59910156 65.87125 98.81148438 65 98 C62.35691857 95.63934461 59.67873985 93.32006112 57 91 C56.51047852 90.57348145 56.02095703 90.14696289 55.51660156 89.70751953 C48.02403171 83.18455002 40.41278447 76.87275353 32.5625 70.78515625 C30.11882345 68.88699138 27.7067467 66.95622572 25.3125 64.99609375 C12.08057521 54.1768867 -1.4339812 45.13442528 -17 38 C-17.60972656 37.71882324 -18.21945312 37.43764648 -18.84765625 37.14794922 C-26.14015915 33.88955497 -32.81387639 33.75947097 -40.6875 33.6875 C-41.72583984 33.65849609 -42.76417969 33.62949219 -43.83398438 33.59960938 C-57.45007425 33.48863184 -66.0185814 39.19069649 -75.53515625 48.47265625 C-84.27840083 57.64833333 -93.40359053 69.74747197 -97.5 81.875 C-98.55954374 84.86256595 -99.75025907 87.7390384 -101.0625 90.625 C-102.60128725 94.02684001 -103.90046436 97.42650916 -105 101 C-105.66 101 -106.32 101 -107 101 C-107.248886 93.12453585 -106.42762268 85.42577047 -105.51074219 77.61865234 C-105.25312255 75.40186909 -105.01290901 73.18365073 -104.7734375 70.96484375 C-101.99567725 46.389194 -93.9293774 21.03643966 -75 4 C-51.69150413 -14.17151967 -26.25027548 -8.72709553 0 0 Z " fill="#596063" transform="translate(1212,307)"/>
<path d="M0 0 C0.7851297 -0.00189835 1.5702594 -0.00379669 2.37918091 -0.00575256 C4.95715567 -0.00943449 7.53484347 0.00122126 10.11279297 0.01245117 C11.93195564 0.01364634 13.75111894 0.01409542 15.57028198 0.01383972 C19.38478463 0.01540107 23.19919298 0.02365364 27.01367188 0.03710938 C31.83677361 0.0539311 36.65977124 0.05784595 41.48289871 0.0572834 C79.27770978 0.05847442 79.27770978 0.05847442 97.72998047 1.24291992 C97.72998047 5.53291992 97.72998047 9.82291992 97.72998047 14.24291992 C96.6681102 14.25100677 95.60623993 14.25909363 94.51219177 14.26742554 C84.49257237 14.34499615 74.47308693 14.43276295 64.45364285 14.53044701 C59.30286273 14.58033834 54.15210241 14.62666901 49.0012207 14.66479492 C44.02796733 14.70173819 39.05488252 14.74812268 34.08177376 14.80098343 C32.1868594 14.81947936 30.29190898 14.83460495 28.39694023 14.84626389 C25.73751535 14.86320864 23.07847247 14.89226323 20.41918945 14.92407227 C19.25069458 14.92731255 19.25069458 14.92731255 18.05859375 14.93061829 C11.31777103 15.03324644 5.22881318 15.94842631 0.08544922 20.71948242 C-5.01692666 26.45414119 -6.02278664 32.33419122 -5.79345703 39.91088867 C-4.64178803 47.2420354 -1.18390448 52.89750011 4.72998047 57.24291992 C4.72998047 57.90291992 4.72998047 58.56291992 4.72998047 59.24291992 C18.56014004 64.39992857 32.46780503 64.6119666 47.04248047 64.86791992 C48.86215859 64.9061982 50.68182051 64.94525523 52.50146484 64.98510742 C56.910875 65.0814441 61.32015903 65.16184918 65.72998047 65.24291992 C65.72998047 58.64291992 65.72998047 52.04291992 65.72998047 45.24291992 C61.30785156 45.26032227 61.30785156 45.26032227 56.79638672 45.27807617 C53.953533 45.28586609 51.11068045 45.29194322 48.26782227 45.29785156 C46.28604605 45.30289259 44.30427358 45.3097253 42.32250977 45.31835938 C39.48045938 45.33043507 36.638458 45.33615037 33.79638672 45.34057617 C32.45889122 45.3483181 32.45889122 45.3483181 31.09437561 45.35621643 C28.97257446 45.35641169 26.85087267 45.30502022 24.72998047 45.24291992 C23.72998047 44.24291992 23.72998047 44.24291992 23.63232422 41.52026367 C23.64392578 40.41811523 23.65552734 39.3159668 23.66748047 38.18041992 C23.67650391 37.07569336 23.68552734 35.9709668 23.69482422 34.83276367 C23.70642578 33.97811523 23.71802734 33.1234668 23.72998047 32.24291992 C71.51731646 32.0530326 71.51731646 32.0530326 87.66748047 32.68041992 C89.23344971 32.73927368 89.23344971 32.73927368 90.83105469 32.79931641 C97.59343647 33.10637592 97.59343647 33.10637592 98.72998047 34.24291992 C98.88856214 35.77480756 98.98129677 37.31359704 99.04638672 38.85229492 C99.08836182 39.82553711 99.13033691 40.7987793 99.17358398 41.80151367 C99.21281982 42.85467773 99.25205566 43.9078418 99.29248047 44.99291992 C99.33493896 46.06155273 99.37739746 47.13018555 99.42114258 48.23120117 C99.80035382 58.57138373 99.81001602 68.89796808 99.72998047 79.24291992 C82.13720693 79.286317 64.54772037 79.23392058 46.95654297 78.98046875 C44.45791357 78.94691142 41.9592027 78.91897963 39.46044922 78.89648438 C1.46286837 78.54876508 1.46286837 78.54876508 -12.21923828 72.19213867 C-14.21735255 71.26729721 -16.16164372 70.67504122 -18.27001953 70.05541992 C-23.93997029 67.98837066 -28.03996982 63.39032213 -32.27001953 59.24291992 C-32.81787109 58.73760742 -33.36572266 58.23229492 -33.93017578 57.71166992 C-35.48705091 56.00500798 -36.39488794 54.32193363 -37.39501953 52.24291992 C-37.72759766 51.56229492 -38.06017578 50.88166992 -38.40283203 50.18041992 C-40.56716777 45.34478692 -40.45359473 41.13077863 -40.45751953 35.93041992 C-40.46976563 35.08801758 -40.48201172 34.24561523 -40.49462891 33.37768555 C-40.5152356 24.59236662 -38.15303245 18.75067757 -32.27001953 12.24291992 C-22.98374942 3.87760222 -12.43467841 -0.09676388 0 0 Z " fill="#B06262" transform="translate(238.27001953125,432.757080078125)"/>
<path d="M0 0 C0.75742996 -0.01614349 1.51485992 -0.03228699 2.29524231 -0.04891968 C3.90156911 -0.07660233 5.50801358 -0.09804639 7.11450195 -0.11376953 C9.55716657 -0.14808816 11.99432876 -0.23578851 14.43554688 -0.32421875 C25.81667767 -0.55245263 25.81667767 -0.55245263 29.93041992 2.13037109 C31.71247739 4.15499365 33.05965678 6.13880307 34.39453125 8.4765625 C35.10480469 9.34023438 35.81507813 10.20390625 36.546875 11.09375 C37.13597656 11.83882813 37.72507812 12.58390625 38.33203125 13.3515625 C39.0075 14.20234375 39.68296875 15.053125 40.37890625 15.9296875 C41.0440625 16.77015625 41.70921875 17.610625 42.39453125 18.4765625 C48.83251533 26.56531173 55.34572441 34.59202784 61.87402344 42.60791016 C63.18777857 44.2224705 64.49847335 45.83952014 65.80859375 47.45703125 C70.48394205 53.21195997 75.26511318 58.86327196 80.14672852 64.44384766 C89.39453125 75.10924223 89.39453125 75.10924223 89.39453125 78.4765625 C84.86030339 78.80062767 80.33292404 79.03487379 75.78979492 79.19067383 C74.24953828 79.25563703 72.71007095 79.34406471 71.17260742 79.45727539 C58.74977247 80.34836482 58.74977247 80.34836482 54.83758545 77.23919678 C51.67908144 73.71056979 49.61365314 69.64291998 47.39453125 65.4765625 C46.0640595 63.80761059 44.73148261 62.14032829 43.39453125 60.4765625 C43.39453125 59.8165625 43.39453125 59.1565625 43.39453125 58.4765625 C35.05717555 58.35202288 26.72235983 58.28739806 18.38418579 58.29778004 C14.51153502 58.30075061 10.64120969 58.28363084 6.76904297 58.21948242 C3.02681885 58.15824435 -0.71205046 58.15123778 -4.45462036 58.18073082 C-5.87715063 58.18262431 -7.29984639 58.16546422 -8.72189331 58.12833595 C-17.1279497 57.83888623 -17.1279497 57.83888623 -24.171875 61.80111694 C-26.23767609 64.60726447 -27.9704014 67.40188855 -29.60546875 70.4765625 C-30.84133001 72.79450428 -31.88583209 74.44583792 -33.60546875 76.4765625 C-36.50276921 77.02856115 -38.5544644 77.18580877 -41.43359375 77.0625 C-42.18259949 77.05401031 -42.93160522 77.04552063 -43.70330811 77.03677368 C-46.08884344 77.0032618 -48.47096087 76.92800136 -50.85546875 76.8515625 C-52.47521148 76.82145937 -54.09500738 76.79408415 -55.71484375 76.76953125 C-59.6796965 76.70347973 -63.64200384 76.59998563 -67.60546875 76.4765625 C-66.44970189 73.32203818 -65.3333203 70.82823958 -63.1015625 68.3125 C-62.61292725 67.75361084 -62.12429199 67.19472168 -61.62084961 66.61889648 C-60.83979858 65.74406616 -60.83979858 65.74406616 -60.04296875 64.8515625 C-58.9482145 63.60113893 -57.85447307 62.34982795 -56.76171875 61.09765625 C-56.22289062 60.4826123 -55.6840625 59.86756836 -55.12890625 59.23388672 C-53.04910801 56.83478612 -51.04219979 54.38050514 -49.04296875 51.9140625 C-46.27679346 48.50493836 -43.47462267 45.13424874 -40.6237793 41.79614258 C-31.27922051 30.85022082 -22.53616257 19.45299528 -13.84423828 7.98535156 C-13.32071777 7.29666992 -12.79719727 6.60798828 -12.2578125 5.8984375 C-11.5615979 4.97949707 -11.5615979 4.97949707 -10.85131836 4.04199219 C-7.60822035 -0.03301162 -4.93761197 0.09947849 0 0 Z " fill="#5B6365" transform="translate(476.60546875,436.5234375)"/>
<path d="M0 0 C5.28338899 -0.19860929 10.5645816 -0.3433133 15.85083008 -0.43945312 C17.64646268 -0.47954648 19.44183634 -0.53403986 21.23657227 -0.60351562 C36.09820055 -1.16417622 36.09820055 -1.16417622 40.53295898 1.55053711 C42.31609749 3.59861897 43.63094148 5.65939277 45 8 C46.12296913 9.30045128 47.27861874 10.57338435 48.46484375 11.81640625 C49.03323975 12.43185303 49.60163574 13.0472998 50.18725586 13.68139648 C50.76483643 14.30216064 51.34241699 14.9229248 51.9375 15.5625 C52.54795166 16.21871338 53.15840332 16.87492676 53.78735352 17.55102539 C57.43737057 21.43768498 61.17173217 25.05657597 65.27734375 28.46484375 C67.20495579 30.18264768 68.8303505 32.0315318 70.5 34 C73.38183386 37.39691276 76.47983337 40.25024056 79.8671875 43.1328125 C83.76225806 46.5427827 87.57888791 50.1116527 91 54 C91 54.66 91 55.32 91 56 C91.66 56 92.32 56 93 56 C92.96970703 55.31824707 92.93941406 54.63649414 92.90820312 53.93408203 C92.17119907 36.9461385 91.86221019 20.00326281 92 3 C96.31248609 2.97113463 100.62494762 2.95324745 104.9375 2.9375 C106.16919922 2.92912109 107.40089844 2.92074219 108.66992188 2.91210938 C109.83974609 2.90888672 111.00957031 2.90566406 112.21484375 2.90234375 C113.84087524 2.89448853 113.84087524 2.89448853 115.49975586 2.88647461 C118 3 118 3 119 4 C119.15273758 5.72933109 119.23832003 7.46464005 119.29711914 9.19970703 C119.3570681 10.86877609 119.3570681 10.86877609 119.41822815 12.57156372 C119.45681442 13.78802582 119.4954007 15.00448792 119.53515625 16.2578125 C119.59962196 18.13338333 119.59962196 18.13338333 119.66539001 20.04684448 C119.75585709 22.7084284 119.84447253 25.36999649 119.92993164 28.03173828 C120.05936469 32.0591575 120.19847054 36.08619521 120.33789062 40.11328125 C121.17827515 64.93275344 121.17827515 64.93275344 121 77 C110.31272618 79.92328695 98.43097234 81.60349348 88 77 C73.71129073 67.66937537 62.27247531 53.32064341 51.14819336 40.55834961 C47.88893469 36.87131444 44.45426316 33.59042838 40.68833923 30.4261322 C38.53973684 28.61121788 36.58063206 26.64448943 34.625 24.625 C32.07819716 21.94789804 32.07819716 21.94789804 29 20 C29.06058594 20.98057373 29.12117188 21.96114746 29.18359375 22.97143555 C30.28785995 41.00181077 31.27383709 58.92675227 31 77 C21.43 77 11.86 77 2 77 C0.13128627 51.37192595 -0.18920629 25.68548152 0 0 Z " fill="#5A6263" transform="translate(1077,447)"/>
<path d="M0 0 C0.7722995 -0.02478424 1.544599 -0.04956848 2.34030151 -0.07510376 C14.3670119 -0.32133291 14.3670119 -0.32133291 18.94152832 3.18676758 C22.36933643 6.69163384 24.80721223 10.74845663 27.3125 14.9375 C28.35166859 16.3668637 29.40807545 17.78410411 30.4921875 19.1796875 C31.3908169 20.3904826 32.28925665 21.60141848 33.1875 22.8125 C38.1160162 29.41964429 43.20840466 35.87744499 48.3828125 42.29296875 C51.65662744 46.35340567 54.86699542 50.46221619 58.07592773 54.57397461 C60.63178907 57.83617635 63.22457388 61.06353503 65.85546875 64.265625 C66.45109619 64.99144775 67.04672363 65.71727051 67.66040039 66.46508789 C68.82366795 67.87893981 69.99068612 69.28971621 71.16186523 70.69702148 C71.68852783 71.33712158 72.21519043 71.97722168 72.7578125 72.63671875 C73.22719238 73.20221436 73.69657227 73.76770996 74.18017578 74.3503418 C75.3125 75.9375 75.3125 75.9375 76.3125 78.9375 C48.60368943 81.64300814 48.60368943 81.64300814 41.71728516 77.30126953 C37.52720222 72.90028679 33.3125 66.22022352 33.3125 59.9375 C25.08826732 59.83626733 16.86623427 59.7892947 8.6414938 59.81052971 C4.82169318 59.8187094 1.00381009 59.80859064 -2.81567383 59.75585938 C-6.505922 59.70559873 -10.19329256 59.70444295 -13.88371086 59.73654556 C-15.28748742 59.74028108 -16.69142629 59.72667301 -18.09485054 59.69500351 C-26.23001999 59.37811379 -26.23001999 59.37811379 -33.08329773 63.09965515 C-35.3921752 66.32759658 -37.07032946 69.62781623 -38.75656128 73.20613098 C-39.84271086 75.46322143 -40.58592481 76.5373704 -42.6875 77.9375 C-47.97986887 78.8034669 -53.1695243 78.59539524 -58.5 78.375 C-59.97062943 78.33986551 -61.441339 78.30793018 -62.91210938 78.27929688 C-66.50557772 78.20237912 -70.09603107 78.08171661 -73.6875 77.9375 C-72.08007242 73.67210013 -70.08249854 70.59387415 -67.25 67 C-66.81042969 66.43861328 -66.37085938 65.87722656 -65.91796875 65.29882812 C-64.51332153 63.50730773 -63.10070706 61.72227262 -61.6875 59.9375 C-60.76897366 58.7699697 -59.85100022 57.6020042 -58.93359375 56.43359375 C-57.55579809 54.67909925 -56.17760435 52.92493492 -54.79736328 51.17236328 C-50.87375754 46.1880996 -46.99828874 41.16821483 -43.140625 36.1328125 C-41.53479328 34.03708758 -39.9189888 31.95049052 -38.296875 29.8671875 C-37.09804688 28.32417969 -37.09804688 28.32417969 -35.875 26.75 C-35.45202637 26.23598633 -35.02905273 25.72197266 -34.59326172 25.19238281 C-32.00920923 21.97852195 -30.12419685 18.86979612 -28.3984375 15.1171875 C-21.84716385 2.11577912 -13.79731686 0.1366386 0 0 Z " fill="#5B6264" transform="translate(992.6875,444.0625)"/>
<path d="M0 0 C9.9 0 19.8 0 30 0 C30.06058594 2.22621094 30.12117187 4.45242188 30.18359375 6.74609375 C30.24534119 8.89399763 30.3087462 11.04184659 30.37231445 13.18969727 C30.41571813 14.68639269 30.45738913 16.18313939 30.49731445 17.67993164 C30.55488616 19.82714312 30.61861716 21.97409521 30.68359375 24.12109375 C30.72025146 25.4145874 30.75690918 26.70808105 30.79467773 28.04077148 C30.6667278 30.88555008 30.6667278 30.88555008 32 32 C33.65644366 32.12290718 35.31798993 32.17783908 36.97875977 32.20532227 C38.57029625 32.2352401 38.57029625 32.2352401 40.19398499 32.26576233 C41.348134 32.28247482 42.50228302 32.29918732 43.69140625 32.31640625 C44.86638168 32.33718735 46.04135712 32.35796844 47.25193787 32.37937927 C51.02206324 32.44500124 54.79226082 32.5038183 58.5625 32.5625 C61.11133573 32.6056732 63.66016403 32.64928708 66.20898438 32.69335938 C72.47258319 32.8015284 78.7362332 32.90050793 85 33 C85 22.77 85 12.54 85 2 C94.9 2 104.8 2 115 2 C116.25222658 27.6818254 117.38578154 53.28320908 117 79 C112.76417673 79.04938628 108.52850535 79.08571263 104.29248047 79.10986328 C102.85104453 79.11992963 101.40962905 79.1335838 99.96826172 79.15087891 C97.89806066 79.17510012 95.82812924 79.18647641 93.7578125 79.1953125 C91.88826904 79.21102295 91.88826904 79.21102295 89.98095703 79.22705078 C87 79 87 79 85 77 C84.77294922 73.92724609 84.77294922 73.92724609 84.8046875 70.0234375 C84.80968262 68.76966309 84.81467773 67.51588867 84.81982422 66.22412109 C84.83803223 64.62391113 84.85624023 63.02370117 84.875 61.375 C84.91625 56.30125 84.9575 51.2275 85 46 C67.51 46 50.02 46 32 46 C32.495 52.93 32.495 52.93 33 60 C33.08192107 63.11541027 33.14246797 66.2002906 33.125 69.3125 C33.13080078 70.42141602 33.13080078 70.42141602 33.13671875 71.55273438 C33.12692972 76.87307028 33.12692972 76.87307028 32 78 C29.78144736 78.08783542 27.56011504 78.10694609 25.33984375 78.09765625 C24.34314415 78.09553383 24.34314415 78.09553383 23.3263092 78.09336853 C21.19666101 78.08775518 19.06711661 78.07520054 16.9375 78.0625 C15.49674631 78.05748671 14.05599097 78.05292351 12.61523438 78.04882812 C9.07678898 78.03778145 5.53840461 78.02050792 2 78 C0.86316425 75.7263285 0.80416311 74.28656864 0.68579102 71.75561523 C0.64413315 70.86858414 0.60247528 69.98155304 0.55955505 69.06764221 C0.5010714 67.60910072 0.5010714 67.60910072 0.44140625 66.12109375 C0.39915421 65.10365585 0.35690216 64.08621796 0.31336975 63.03794861 C-0.1626437 50.38146798 -0.10854805 37.72571276 -0.0625 25.0625 C-0.05746681 22.61393322 -0.05290717 20.16536543 -0.04882812 17.71679688 C-0.038849 11.8111508 -0.01925058 5.90565161 0 0 Z " fill="#5D6465" transform="translate(793,443)"/>
<path d="M0 0 C4.1117256 -0.02465746 8.22342278 -0.04283959 12.33520508 -0.05493164 C13.73495228 -0.0599708 15.1346942 -0.06680216 16.53442383 -0.07543945 C18.54245777 -0.0875232 20.55052957 -0.09269807 22.55859375 -0.09765625 C24.37315063 -0.10551147 24.37315063 -0.10551147 26.22436523 -0.11352539 C29 0 29 0 30 1 C30.15996166 3.59153107 30.25938697 6.1595202 30.31640625 8.75390625 C30.33718735 9.52935287 30.35796844 10.3047995 30.37937927 11.10374451 C30.44495802 13.58990308 30.50379799 16.07617045 30.5625 18.5625 C30.60567733 20.24415204 30.64929136 21.92579294 30.69335938 23.60742188 C30.80064779 27.73816871 30.90189132 31.86902536 31 36 C38.45110115 32.5546381 44.70296256 28.05208574 51.1796875 23.0703125 C72.4359161 6.99418067 88.23819963 -3.08757285 115.41796875 -0.01953125 C117.61528816 0.29821531 119.81106895 0.62884456 122 1 C122 1.99 122 2.98 122 4 C120.3603125 4.7734375 120.3603125 4.7734375 118.6875 5.5625 C115.30083512 7.25657269 112.11554234 9.1375855 108.9296875 11.18359375 C107.96538818 11.80226318 107.00108887 12.42093262 106.00756836 13.05834961 C105.0150708 13.69909424 104.02257324 14.33983887 103 15 C101.57216187 15.92147827 101.57216187 15.92147827 100.11547852 16.86157227 C97.21948658 18.7359712 94.32793438 20.61704409 91.4375 22.5 C90.47392578 23.12519531 89.51035156 23.75039063 88.51757812 24.39453125 C82.90798134 28.04852349 77.39883167 31.79909959 71.98071289 35.73242188 C70 37 70 37 68 37 C70.18771681 41.38290023 72.34548776 43.11595263 76.6875 45.3125 C77.68136719 45.82425781 78.67523437 46.33601563 79.69921875 46.86328125 C80.45847656 47.23839844 81.21773437 47.61351562 82 48 C82 48.66 82 49.32 82 50 C82.721875 50.268125 83.44375 50.53625 84.1875 50.8125 C88.49249774 52.63016571 91.71792911 54.71792911 95 58 C97.09989652 59.17574711 97.09989652 59.17574711 99 60 C99 60.66 99 61.32 99 62 C99.71542969 62.25265625 100.43085937 62.5053125 101.16796875 62.765625 C104.24480285 64.10670028 106.62525953 65.74331971 109.3125 67.75 C110.26382813 68.45769531 111.21515625 69.16539062 112.1953125 69.89453125 C113.58363281 70.93673828 113.58363281 70.93673828 115 72 C115.82242188 72.60199219 116.64484375 73.20398438 117.4921875 73.82421875 C121.62426495 76.860781 121.62426495 76.860781 123 78 C123 78.33 123 78.66 123 79 C118.05208706 79.0246826 113.1042098 79.04285166 108.15625 79.05493164 C106.47232438 79.05996653 104.78840314 79.06679481 103.10449219 79.07543945 C100.68683797 79.08754196 98.26924144 79.09323668 95.8515625 79.09765625 C95.0963028 79.10281754 94.34104309 79.10797882 93.56289673 79.11329651 C88.22774341 79.11387171 88.22774341 79.11387171 86 78 C86 77.34 86 76.68 86 76 C85.13761719 75.76410156 84.27523437 75.52820313 83.38671875 75.28515625 C79.58564672 73.84276559 76.99677689 71.95182763 73.8125 69.4375 C69.71691428 66.14319616 69.71691428 66.14319616 65 64 C64.38125 63.195625 63.7625 62.39125 63.125 61.5625 C60.74827121 58.69644469 59.38157022 58.34173577 56 57 C54.35524215 55.89129201 52.74944447 54.72261657 51.1875 53.5 C50.39730469 52.8915625 49.60710938 52.283125 48.79296875 51.65625 C48.20128906 51.1096875 47.60960937 50.563125 47 50 C47 49.34 47 48.68 47 48 C45.68 47.67 44.36 47.34 43 47 C39.7 45.02 36.4 43.04 33 41 C33 53.21 33 65.42 33 78 C25.9153125 78.061875 25.9153125 78.061875 18.6875 78.125 C16.45746216 78.15231201 16.45746216 78.15231201 14.18237305 78.18017578 C13.01230713 78.1851709 11.84224121 78.19016602 10.63671875 78.1953125 C8.83787231 78.21102295 8.83787231 78.21102295 7.00268555 78.22705078 C4 78 4 78 1 76 C0.65828669 73.28500962 0.51073262 70.7890329 0.48828125 68.06640625 C0.46128647 66.84635391 0.46128647 66.84635391 0.43374634 65.60165405 C0.37865497 62.9219857 0.34521184 60.24252761 0.3125 57.5625 C0.27966435 55.71751238 0.24588353 53.87254135 0.21118164 52.02758789 C-0.09193447 34.68669065 -0.10741123 17.34278321 0 0 Z " fill="#B15F5F" transform="translate(657,440)"/>
<path d="M0 0 C4.15526147 1.56307733 6.51428532 4.60279366 9.25 7.9375 C9.73380127 8.51943115 10.21760254 9.1013623 10.71606445 9.70092773 C20.48248853 21.55865625 28.87029037 34.39611752 36.85546875 47.5 C38.40100895 50.03343378 39.96943363 52.55126087 41.55078125 55.0625 C41.9885791 55.75827148 42.42637695 56.45404297 42.87744141 57.17089844 C43.72035677 58.50862994 44.56494927 59.84530691 45.41162109 61.18066406 C54.92634088 76.3030367 63.01997508 92.50326102 70.6875 108.625 C71.17730347 109.64400391 71.17730347 109.64400391 71.67700195 110.68359375 C73.27363689 114.09669962 74.46297557 117.26230994 75 121 C70.9670232 119.61230906 68.14516807 117.7201398 64.875 115 C62.28973622 112.86263907 59.79361659 110.86241106 57 109 C57 108.34 57 107.68 57 107 C56.175 106.79375 55.35 106.5875 54.5 106.375 C50.80553612 104.92360348 48.31482834 103.14593295 45.21875 100.72265625 C42.77600619 98.82608931 40.27821516 97.0309045 37.75 95.25 C36.94046875 94.67765625 36.1309375 94.1053125 35.296875 93.515625 C33.24630794 92.16252973 31.19704524 91.08650377 29 90 C28.566875 89.54625 28.13375 89.0925 27.6875 88.625 C24.62840895 85.67920862 20.78092879 83.68028271 16.83203125 82.171875 C12.76425473 80.48865713 8.94253892 78.38636052 5.0625 76.3125 C-0.83374927 73.18869305 -6.73104023 70.07029978 -12.6875 67.0625 C-13.72261719 66.53785156 -14.75773437 66.01320313 -15.82421875 65.47265625 C-22.13555333 62.54599803 -28.61338927 60.40863452 -35.3125 58.5625 C-36.07288574 58.35149658 -36.83327148 58.14049316 -37.61669922 57.9230957 C-46.32723091 55.56033068 -55.15060626 53.75614355 -64 52 C-63.67 51.01 -63.34 50.02 -63 49 C-60.98257635 48.06085451 -58.95729406 47.13669339 -56.90625 46.2734375 C-33.38020544 35.96498249 -15.76782251 19.98622697 0 0 Z " fill="#B05E60" transform="translate(1268,233)"/>
<path d="M0 0 C9.57 0 19.14 0 29 0 C29.06058594 2.15402344 29.12117188 4.30804688 29.18359375 6.52734375 C29.24534241 8.6057501 29.30874691 10.68409975 29.37231445 12.76245117 C29.4157163 14.2106424 29.45738744 15.65888654 29.49731445 17.10717773 C29.55489062 19.18489559 29.61862028 21.26234573 29.68359375 23.33984375 C29.72025146 24.59144287 29.75690918 25.84304199 29.79467773 27.13256836 C29.67803906 29.89630504 29.67803906 29.89630504 31 31 C32.59513893 31.12272849 34.19554932 31.17781043 35.79516602 31.20532227 C37.32664024 31.2352401 37.32664024 31.2352401 38.88905334 31.26576233 C40.55465553 31.29083107 40.55465553 31.29083107 42.25390625 31.31640625 C43.38448959 31.33718735 44.51507294 31.35796844 45.67991638 31.37937927 C49.30737985 31.44499797 52.93491833 31.50381677 56.5625 31.5625 C59.01498186 31.60567351 61.467456 31.6492874 63.91992188 31.69335938 C69.94653869 31.80152419 75.97320873 31.90050608 82 32 C82 21.77 82 11.54 82 1 C86.269375 0.979375 90.53875 0.95875 94.9375 0.9375 C96.95991821 0.92384399 96.95991821 0.92384399 99.02319336 0.90991211 C100.6030603 0.90616577 100.6030603 0.90616577 102.21484375 0.90234375 C103.84087524 0.89448853 103.84087524 0.89448853 105.49975586 0.88647461 C108 1 108 1 109 2 C109.1520212 3.50821064 109.23812276 5.02313747 109.29711914 6.5378418 C109.3570681 7.99283333 109.3570681 7.99283333 109.41822815 9.47721863 C109.45681442 10.54047867 109.4954007 11.60373871 109.53515625 12.69921875 C109.59962196 14.3501226 109.59962196 14.3501226 109.66539001 16.03437805 C109.75591233 18.3840764 109.84401342 20.73386903 109.92993164 23.08374023 C110.05927158 26.59973807 110.1979234 30.11527063 110.33789062 33.63085938 C110.88164458 47.76583532 111.08919047 61.85439153 111 76 C102.09 76 93.18 76 84 76 C83.19562734 65.54315546 83 55.57626796 83 45 C65.84 45 48.68 45 31 45 C31 54.9 31 64.8 31 75 C21.1 75 11.2 75 1 75 C-0.125 59.25 -0.125 59.25 -0.11352539 53.81103516 C-0.11344986 52.59082672 -0.11337433 51.37061829 -0.11329651 50.11343384 C-0.10813522 48.8513913 -0.10297394 47.58934875 -0.09765625 46.2890625 C-0.09578414 44.94143731 -0.094364 43.59381143 -0.09336853 42.2461853 C-0.08960566 38.75124124 -0.0798311 35.25634077 -0.06866455 31.76141357 C-0.058314 28.17428182 -0.05378675 24.58714259 -0.04882812 21 C-0.0387358 13.99996189 -0.01914905 7.00004244 0 0 Z " fill="#5C6364" transform="translate(1225,450)"/>
<path d="M0 0 C-0.63156995 5.05255964 -2.13459373 9.29593201 -4 14 C-4.66 14 -5.32 14 -6 14 C-6.144375 15.093125 -6.28875 16.18625 -6.4375 17.3125 C-7 21 -7 21 -8 24 C-8.08266486 25.91906917 -8.10740663 27.84089474 -8.09765625 29.76171875 C-8.09443359 30.87998047 -8.09121094 31.99824219 -8.08789062 33.15039062 C-8.07951172 34.31763672 -8.07113281 35.48488281 -8.0625 36.6875 C-8.05798828 37.86634766 -8.05347656 39.04519531 -8.04882812 40.25976562 C-8.03703273 43.17322789 -8.0205727 46.08658863 -8 49 C-9.04414063 49.14695312 -10.08828125 49.29390625 -11.1640625 49.4453125 C-27.96539852 51.95147144 -44.19690059 56.4567457 -60.19921875 62.1171875 C-63 63 -63 63 -66 63 C-66 63.66 -66 64.32 -66 65 C-68.26882087 65.83919398 -70.53977027 66.67151724 -72.8125 67.5 C-73.77639648 67.85771484 -73.77639648 67.85771484 -74.75976562 68.22265625 C-77.64933739 69.27068746 -79.90076061 70 -83 70 C-83 70.66 -83 71.32 -83 72 C-83.50144531 72.18433594 -84.00289062 72.36867188 -84.51953125 72.55859375 C-107.3525079 81.0822961 -107.3525079 81.0822961 -127 95 C-128.32 95 -129.64 95 -131 95 C-129.66000502 91.993182 -128.20154709 90.00237391 -125.8125 87.75 C-123.39312953 85.46094691 -121.18882613 83.07193604 -119.02734375 80.54296875 C-114.38637738 75.20151403 -109.39612766 70.21008049 -104.39501953 65.2097168 C-102.76172552 63.57424118 -101.1366153 61.93092292 -99.51171875 60.28710938 C-92.99024968 53.73068026 -86.29704757 47.69797511 -79 42 C-77.46472656 40.78183594 -77.46472656 40.78183594 -75.8984375 39.5390625 C-64.55067584 30.93162719 -52.582529 23.31920797 -40.1875 16.3125 C-39.04933838 15.66099976 -39.04933838 15.66099976 -37.88818359 14.99633789 C-37.1761377 14.6018042 -36.4640918 14.20727051 -35.73046875 13.80078125 C-35.10551514 13.45184814 -34.48056152 13.10291504 -33.83666992 12.7434082 C-32 12 -32 12 -28 12 C-28 11.34 -28 10.68 -28 10 C-24.62902617 8.50178941 -22.79557881 8 -19 8 C-19 7.34 -19 6.68 -19 6 C-16.20964954 4.99619084 -13.41785145 3.9968055 -10.625 3 C-9.8309375 2.71382813 -9.036875 2.42765625 -8.21875 2.1328125 C-7.07792969 1.72675781 -7.07792969 1.72675781 -5.9140625 1.3125 C-5.2123291 1.06113281 -4.5105957 0.80976563 -3.78759766 0.55078125 C-2 0 -2 0 0 0 Z " fill="#AF5D5F" transform="translate(307,305)"/>
<path d="M0 0 C10.89 0 21.78 0 33 0 C33.2892076 7.25084779 33.57537972 14.50170177 33.85449219 21.75292969 C33.94983135 24.20807308 34.04677734 26.66315471 34.14550781 29.11816406 C34.79975804 45.42101152 35.14788447 61.68379292 35 78 C33.01953267 78.0154724 31.03906484 78.03088495 29.05859375 78.04586792 C27.57028808 78.05789245 26.08200643 78.07302489 24.59375 78.09008789 C16.70872817 78.11859019 8.86218084 77.5407688 1 77 C0.07445504 51.32597365 -0.11350213 25.68931454 0 0 Z " fill="#5C6366" transform="translate(363,435)"/>
<path d="M0 0 C0.82992966 -0.00014603 1.65985931 -0.00029205 2.51493835 -0.0004425 C5.24191963 0.00025086 7.96883152 0.00801617 10.69580078 0.01586914 C12.59294599 0.01773537 14.49009168 0.01915831 16.38723755 0.02015686 C21.36846255 0.02396591 26.34965816 0.03378238 31.33087158 0.04486084 C36.41865644 0.05510967 41.50644607 0.05966191 46.59423828 0.06469727 C56.56820949 0.07540614 66.54215894 0.09246314 76.51611328 0.11352539 C76.51611328 0.44352539 76.51611328 0.77352539 76.51611328 1.11352539 C52.42611328 1.11352539 28.33611328 1.11352539 3.51611328 1.11352539 C3.84611328 2.43352539 4.17611328 3.75352539 4.51611328 5.11352539 C4.18611328 9.07352539 3.85611328 13.03352539 3.51611328 17.11352539 C14.73611328 17.11352539 25.95611328 17.11352539 37.51611328 17.11352539 C37.51611328 17.44352539 37.51611328 17.77352539 37.51611328 18.11352539 C26.29611328 18.11352539 15.07611328 18.11352539 3.51611328 18.11352539 C3.84611328 22.07352539 4.17611328 26.03352539 4.51611328 30.11352539 C24.81111328 30.60852539 24.81111328 30.60852539 45.51611328 31.11352539 C45.51611328 37.71352539 45.51611328 44.31352539 45.51611328 51.11352539 C40.19972537 51.15982195 34.88405699 51.19952892 29.56762695 51.22338867 C27.76486826 51.23335133 25.96212532 51.24692635 24.15942383 51.2644043 C-8.40367523 51.57185927 -8.40367523 51.57185927 -18.77294922 42.02368164 C-24.92447281 35.15588475 -27.43006688 28.32596539 -26.92919922 19.12524414 C-25.81701775 11.60338524 -22.26190866 7.42233436 -16.67919922 2.46118164 C-11.72095309 -0.58258155 -5.647699 -0.02625964 0 0 Z " fill="#E3E0DF" transform="translate(258.48388671875,446.886474609375)"/>
<path d="M0 0 C3.57397801 1.45022528 5.15051316 3.20024267 7.3125 6.359375 C7.91320312 7.22820312 8.51390625 8.09703125 9.1328125 8.9921875 C10.05707031 10.35730469 10.05707031 10.35730469 11 11.75 C11.92425781 13.09191406 11.92425781 13.09191406 12.8671875 14.4609375 C14.58932312 16.96653396 16.29506399 19.4826873 18 22 C18.43828125 22.62970703 18.8765625 23.25941406 19.328125 23.90820312 C22 27.77959947 22 27.77959947 22 30 C8.14 30 -5.72 30 -20 30 C-19.11516948 26.46067792 -18.54040483 25.03013974 -16.5234375 22.20703125 C-16.02038086 21.49796631 -15.51732422 20.78890137 -14.99902344 20.05834961 C-14.4630957 19.31721924 -13.92716797 18.57608887 -13.375 17.8125 C-12.83391602 17.05525635 -12.29283203 16.2980127 -11.73535156 15.51782227 C-7.95033666 10.24583722 -4.08300552 5.04624978 0 0 Z " fill="#E0E2E1" transform="translate(486,452)"/>
<path d="M0 0 C1.32 0.66 2.64 1.32 4 2 C4 2.99 4 3.98 4 5 C4.99 5.33 5.98 5.66 7 6 C8.74757586 8.36608351 10.35907813 10.71315368 11.9375 13.1875 C12.36740234 13.84814453 12.79730469 14.50878906 13.24023438 15.18945312 C14.0913268 16.49773329 14.93824864 17.80873706 15.78076172 19.12255859 C16.92968539 20.8917262 18.11838809 22.6271836 19.31640625 24.36328125 C21 27 21 27 21 29 C7.8 29 -5.4 29 -19 29 C-15.01229054 19.03072634 -7.6397523 7.6397523 0 0 Z " fill="#E6E7E7" transform="translate(992,461)"/>
<path d="M0 0 C1.07878418 0.01047363 2.15756836 0.02094727 3.26904297 0.03173828 C5.01894531 0.04140625 5.01894531 0.04140625 6.80419922 0.05126953 C8.02751953 0.06802734 9.25083984 0.08478516 10.51123047 0.10205078 C11.74228516 0.11107422 12.97333984 0.12009766 14.24169922 0.12939453 C17.28995852 0.15302445 20.33811836 0.18889639 23.38623047 0.22705078 C23.38623047 6.16705078 23.38623047 12.10705078 23.38623047 18.22705078 C14.14623047 18.22705078 4.90623047 18.22705078 -4.61376953 18.22705078 C-4.65501953 15.62830078 -4.69626953 13.02955078 -4.73876953 10.35205078 C-4.75697754 9.53494629 -4.77518555 8.7178418 -4.79394531 7.87597656 C-4.8085417 5.99210029 -4.71320436 4.10835766 -4.61376953 2.22705078 C-2.61376953 0.22705078 -2.61376953 0.22705078 0 0 Z " fill="#E6E5E3" transform="translate(279.61376953125,478.77294921875)"/>
<path d="M0 0 C0.33 0 0.66 0 1 0 C1.33 2.64 1.66 5.28 2 8 C2.66 7.67 3.32 7.34 4 7 C6.04055005 6.92934383 8.08334257 6.91578024 10.125 6.9375 C13.033125 6.9684375 13.033125 6.9684375 16 7 C16 11.62 16 16.24 16 21 C16.33 20.67 16.66 20.34 17 20 C20 18 20 18 22.1875 18.375 C23.0846875 18.684375 23.0846875 18.684375 24 19 C20.73644232 21.1777843 17.46302416 23.3402644 14.1875 25.5 C13.25873047 26.12003906 12.32996094 26.74007813 11.37304688 27.37890625 C10.48037109 27.96542969 9.58769531 28.55195313 8.66796875 29.15625 C7.43469849 29.97319336 7.43469849 29.97319336 6.17651367 30.80664062 C4 32 4 32 1 32 C0.06503781 24.93993115 -0.12086777 18.05387765 -0.0625 10.9375 C-0.05798828 9.88111328 -0.05347656 8.82472656 -0.04882812 7.73632812 C-0.03715918 5.15749092 -0.02078885 2.57877706 0 0 Z " fill="#E4DFDE" transform="translate(687,444)"/>
<path d="M0 0 C1.67057156 0.00503086 3.3411446 0.00959093 5.01171875 0.01367188 C9.04951682 0.02453841 13.08724132 0.04171319 17.125 0.0625 C17.125 0.3925 17.125 0.7225 17.125 1.0625 C15.78707397 1.10008423 15.78707397 1.10008423 14.42211914 1.13842773 C11.07289975 1.23428118 7.72381176 1.33346492 4.37475586 1.43481445 C2.93273698 1.47779012 1.49067933 1.51948648 0.04858398 1.55981445 C-7.63455833 1.77552833 -15.24625304 2.04817498 -22.875 3.0625 C-23.205 5.7025 -23.535 8.3425 -23.875 11.0625 C-22.225 11.0625 -20.575 11.0625 -18.875 11.0625 C-18.875 11.3925 -18.875 11.7225 -18.875 12.0625 C-19.52460693 12.08231934 -20.17421387 12.10213867 -20.84350586 12.12255859 C-23.83352522 12.21877933 -26.82293648 12.32805899 -29.8125 12.4375 C-30.83408203 12.4684375 -31.85566406 12.499375 -32.90820312 12.53125 C-39.14491417 12.77035713 -44.82703532 13.511093 -50.875 15.0625 C-50.875 11.7625 -50.875 8.4625 -50.875 5.0625 C-51.865 4.7325 -52.855 4.4025 -53.875 4.0625 C-50.66794739 3.57451017 -47.45916519 3.09888085 -44.25 2.625 C-43.36570312 2.49029297 -42.48140625 2.35558594 -41.5703125 2.21679688 C-27.71738132 0.18833195 -13.96622958 -0.07412479 0 0 Z " fill="#D9DADA" transform="translate(454.875,267.9375)"/>
<path d="M0 0 C0.78454559 -0.00189835 1.56909119 -0.00379669 2.37741089 -0.00575256 C4.97713165 -0.00946156 7.57657342 0.00126273 10.17626953 0.01245117 C12.00114916 0.01364519 13.82602942 0.01409567 15.65090942 0.01383972 C19.489317 0.01540588 23.3276315 0.02369274 27.16601562 0.03710938 C32.020619 0.05388541 36.87511898 0.05784716 41.72974777 0.0572834 C79.78092693 0.05847749 79.78092693 0.05847749 98.18408203 1.24291992 C98.18408203 5.53291992 98.18408203 9.82291992 98.18408203 14.24291992 C53.63408203 14.73791992 53.63408203 14.73791992 8.18408203 15.24291992 C11.96663827 12.72121576 14.94893971 12.97571301 19.32739258 13.01586914 C20.15688416 13.01557709 20.98637573 13.01528503 21.84100342 13.01498413 C24.5843754 13.01637813 27.32747621 13.03194261 30.07080078 13.04760742 C31.97223258 13.0513373 33.8736663 13.05418439 35.77510071 13.05618286 C40.78106996 13.06382127 45.78692326 13.08347158 50.79284668 13.10559082 C55.90045605 13.12604475 61.00808414 13.13518361 66.11572266 13.14526367 C76.13856007 13.16671725 86.16131141 13.20085573 96.18408203 13.24291992 C96.18408203 9.94291992 96.18408203 6.64291992 96.18408203 3.24291992 C95.4301416 3.24815674 94.67620117 3.25339355 93.89941406 3.25878906 C90.36931243 3.28001589 86.83922428 3.29272157 83.30908203 3.30541992 C82.12443359 3.31379883 80.93978516 3.32217773 79.71923828 3.33081055 C73.20466642 3.34822919 66.74551176 3.17869581 60.24658203 2.74291992 C46.92185578 1.88993765 33.55297879 2.13179942 20.20727539 2.17425537 C16.58626906 2.18464637 12.96525535 2.18908614 9.34423828 2.1940918 C2.29083533 2.20468675 -4.76253839 2.22166115 -11.81591797 2.24291992 C-8.06066439 -0.20380646 -4.32385692 -0.03299029 0 0 Z " fill="#C09796" transform="translate(237.81591796875,432.757080078125)"/>
<path d="M0 0 C1.4049404 3.89060419 0.69513239 7.23092362 0.0625 11.25 C-0.13214844 12.51328125 -0.32679687 13.7765625 -0.52734375 15.078125 C-0.68332031 16.04234375 -0.83929687 17.0065625 -1 18 C-5.03994039 17.44549838 -8.99777881 16.80044424 -13 16 C-13 11.71 -13 7.42 -13 3 C-11.040625 2.87625 -9.08125 2.7525 -7.0625 2.625 C-3.8159849 2.46898963 -3.8159849 2.46898963 -1 2 C-0.67 1.34 -0.34 0.68 0 0 Z " fill="#DEDEDE" transform="translate(1108,370)"/>
<path d="M0 0 C0.33 0 0.66 0 1 0 C1.02505615 0.70608398 1.0501123 1.41216797 1.07592773 2.13964844 C1.19207369 5.34327509 1.31471603 8.54662118 1.4375 11.75 C1.47681641 12.86117188 1.51613281 13.97234375 1.55664062 15.1171875 C1.59853516 16.18710937 1.64042969 17.25703125 1.68359375 18.359375 C1.72025146 19.34389648 1.75690918 20.32841797 1.79467773 21.34277344 C1.9452083 24.25421319 1.9452083 24.25421319 3 28 C27.255 28.495 27.255 28.495 52 29 C52 19.43 52 9.86 52 0 C52.33 0 52.66 0 53 0 C53 10.23 53 20.46 53 31 C45.77328016 31.04583543 38.54706173 31.08568385 31.3203125 31.10986328 C28.86033421 31.11993983 26.40036794 31.13360131 23.94042969 31.15087891 C20.41077715 31.17505461 16.88128253 31.1864664 13.3515625 31.1953125 C12.24632233 31.20563507 11.14108215 31.21595764 10.00234985 31.22659302 C8.98144257 31.22674408 7.96053528 31.22689514 6.90869141 31.22705078 C6.00712311 31.231492 5.10555481 31.23593323 4.17666626 31.24050903 C2 31 2 31 0 29 C-0.22705078 26.11083984 -0.22705078 26.11083984 -0.1953125 22.4609375 C-0.18564453 20.50800781 -0.18564453 20.50800781 -0.17578125 18.515625 C-0.15906929 17.13541405 -0.14213939 15.75520571 -0.125 14.375 C-0.11497006 12.98698548 -0.10584423 11.59896411 -0.09765625 10.2109375 C-0.07401863 6.80711974 -0.04106867 3.40364494 0 0 Z " fill="#B8BAB9" transform="translate(1254,451)"/>
<path d="M0 0 C0.33 0 0.66 0 1 0 C2.12089545 12.67012175 2.10768094 25.28867976 2 38 C-2.07507572 38.04946866 -6.15003497 38.08575189 -10.2253418 38.10986328 C-11.61144048 38.1199157 -12.99751799 38.1335597 -14.38354492 38.15087891 C-16.3766975 38.17515952 -18.37000533 38.18542031 -20.36328125 38.1953125 C-22.16212769 38.21102295 -22.16212769 38.21102295 -23.99731445 38.22705078 C-27 38 -27 38 -30 36 C-30.34057617 32.92724609 -30.34057617 32.92724609 -30.29296875 29.0234375 C-30.28872391 28.33819 -30.28447906 27.6529425 -30.28010559 26.94692993 C-30.26329753 24.75588871 -30.22564405 22.56576368 -30.1875 20.375 C-30.17245579 18.89063827 -30.15876693 17.40626215 -30.14648438 15.921875 C-30.1133879 12.28095167 -30.06159207 8.64056522 -30 5 C-29.67 5 -29.34 5 -29 5 C-28.67 15.23 -28.34 25.46 -28 36 C-18.76 36 -9.52 36 0 36 C0 24.12 0 12.24 0 0 Z " fill="#C49694" transform="translate(688,480)"/>
<path d="M0 0 C4.62 0 9.24 0 14 0 C14.09765625 7.71484375 14.09765625 7.71484375 14 10 C13 11 13 11 9.83984375 11.09765625 C7.90818359 11.08025391 7.90818359 11.08025391 5.9375 11.0625 C4.64714844 11.05347656 3.35679687 11.04445313 2.02734375 11.03515625 C1.02832031 11.02355469 0.02929688 11.01195312 -1 11 C-0.67 7.37 -0.34 3.74 0 0 Z " fill="#EDEDEB" transform="translate(288,479)"/>
<path d="M0 0 C9.3152884 0.35733249 18.54386697 1.01849469 27.8059082 2.09326172 C55.15019783 5.2649937 82.51555371 5.15844692 110 5 C110 5.33 110 5.66 110 6 C100.80212606 6.94885834 91.67851479 7.15958937 82.4375 7.125 C81.72500092 7.12378143 81.01250183 7.12256287 80.27841187 7.12130737 C66.17187226 7.09324462 52.08969133 6.7026026 38 6 C37.22027832 5.96261719 36.44055664 5.92523438 35.63720703 5.88671875 C29.43687244 5.57562182 23.52908669 5.06545823 17.5078125 3.54296875 C11.75257775 2.29689767 5.84163764 1.72347027 0 1 C0 0.67 0 0.34 0 0 Z " fill="#C99FA1" transform="translate(709,336)"/>
<path d="M0 0 C0 0.33 0 0.66 0 1 C-1.34070557 1.029729 -1.34070557 1.029729 -2.70849609 1.06005859 C-21.86716504 1.50389823 -40.90592547 2.26623986 -60 4 C-60 4.66 -60 5.32 -60 6 C-63.3 6.33 -66.6 6.66 -70 7 C-70 6.01 -70 5.02 -70 4 C-71.98 4 -73.96 4 -76 4 C-76 3.67 -76 3.34 -76 3 C-50.60822546 0.27089836 -25.5264673 -0.37878861 0 0 Z " fill="#D5C0BF" transform="translate(1023,367)"/>
<path d="M0 0 C4.12121003 -0.38636344 7.09365196 0.62534515 10.83984375 2.1484375 C15.8219037 4.1124322 20.56854533 5.36693505 25.875 6.125 C27.02742187 6.29257812 28.17984375 6.46015625 29.3671875 6.6328125 C30.23601563 6.75398438 31.10484375 6.87515625 32 7 C32 7.33 32 7.66 32 8 C28.7 8.33 25.4 8.66 22 9 C22.66 10.32 23.32 11.64 24 13 C18.54406329 11.39323547 13.6697853 8.94969106 8.625 6.375 C7.79355469 5.95476562 6.96210937 5.53453125 6.10546875 5.1015625 C4.06843641 4.07133925 2.03337811 3.03741179 0 2 C0 1.34 0 0.68 0 0 Z " fill="#BE8484" transform="translate(584,312)"/>
<path d="M0 0 C0.99 0 1.98 0 3 0 C3 4.29 3 8.58 3 13 C1.35 13.33 -0.3 13.66 -2 14 C-5.00624144 16.59629943 -6.73727116 18.21181348 -8 22 C-8.66 22 -9.32 22 -10 22 C-7.707015 14.04199322 -4.05100513 7.18082279 0 0 Z " fill="#EAE4E2" transform="translate(1105,295)"/>
<path d="M0 0 C-0.33 1.65 -0.66 3.3 -1 5 C-6.0353859 5.04954963 -11.0706289 5.08579037 -16.10620117 5.10986328 C-17.81814039 5.11990208 -19.53006255 5.13353595 -21.24194336 5.15087891 C-23.70691142 5.17522073 -26.17165215 5.18650438 -28.63671875 5.1953125 C-29.77919319 5.21079636 -29.77919319 5.21079636 -30.94474792 5.22659302 C-35.03906678 5.2274516 -38.4073604 5.070014 -42 3 C-42.33 2.01 -42.66 1.02 -43 0 C-42.34 0 -41.68 0 -41 0 C-41 0.66 -41 1.32 -41 2 C-29.12 2 -17.24 2 -5 2 C-5.495 1.01 -5.495 1.01 -6 0 C-3 -1 -3 -1 0 0 Z " fill="#D6C2C0" transform="translate(784,516)"/>
<path d="M0 0 C12.21 0 24.42 0 37 0 C37 0.99 37 1.98 37 3 C31.25 6 31.25 6 29 6 C29 5.34 29 4.68 29 4 C29.66 4 30.32 4 31 4 C31 3.34 31 2.68 31 2 C20.44 2 9.88 2 -1 2 C-0.67 1.34 -0.34 0.68 0 0 Z " fill="#BE9090" transform="translate(742,441)"/>
<path d="M0 0 C4.1015625 2.24609375 4.1015625 2.24609375 8.203125 4.4921875 C10.45130408 5.70419466 12.7072805 6.87547567 15 8 C15 8.66 15 9.32 15 10 C15.66 10.33 16.32 10.66 17 11 C16.01 11 15.02 11 14 11 C14 10.34 14 9.68 14 9 C13.505 9.165 13.01 9.33 12.5 9.5 C8.96555911 10.20688818 5.60309299 10.06005155 2 10 C1.67 11.65 1.34 13.3 1 15 C0.67 15 0.34 15 0 15 C0 10.05 0 5.1 0 0 Z " fill="#E6E0DE" transform="translate(689,480)"/>
<path d="M0 0 C2.32510245 2.84179188 4.57700599 5.72826599 6.75 8.6875 C7.17796875 9.26886719 7.6059375 9.85023438 8.046875 10.44921875 C9 12 9 12 9 14 C5.7 14 2.4 14 -1 14 C-1.02694851 12.04174127 -1.04637218 10.08337774 -1.0625 8.125 C-1.07410156 7.03445313 -1.08570313 5.94390625 -1.09765625 4.8203125 C-1 2 -1 2 0 0 Z " fill="#DBDDDD" transform="translate(1004,476)"/>
<path d="M0 0 C4.29 0 8.58 0 13 0 C13 1.98 13 3.96 13 6 C8.71 6 4.42 6 0 6 C0 4.02 0 2.04 0 0 Z " fill="#F1F2F1" transform="translate(742,0)"/>
<path d="M0 0 C0.66 0.33 1.32 0.66 2 1 C0.63016497 4.16115776 0.0109362 4.9927092 -3 7 C-3.99 7 -4.98 7 -6 7 C-6.309375 7.61875 -6.61875 8.2375 -6.9375 8.875 C-9 13 -9 13 -11.3269043 13.90771484 C-14.18743199 15.07658879 -15.62877675 16.27996223 -17.76953125 18.4765625 C-18.43017578 19.146875 -19.09082031 19.8171875 -19.77148438 20.5078125 C-20.44501953 21.20648438 -21.11855469 21.90515625 -21.8125 22.625 C-22.50537109 23.33140625 -23.19824219 24.0378125 -23.91210938 24.765625 C-25.61506879 26.50381806 -27.31061192 28.24863061 -29 30 C-29.66 29.67 -30.32 29.34 -31 29 C-11.08292923 8.68018865 -11.08292923 8.68018865 -1 1 C-0.67 0.67 -0.34 0.34 0 0 Z " fill="#B17376" transform="translate(229,346)"/>
<path d="M0 0 C1.70209877 0.00333092 1.70209877 0.00333092 3.43858337 0.00672913 C4.71983597 0.00680466 6.00108856 0.00688019 7.32116699 0.00695801 C8.73001646 0.01206542 10.13886554 0.01728143 11.54771423 0.02259827 C12.98118033 0.02446249 14.41464706 0.02588637 15.84811401 0.02688599 C19.62765755 0.03071079 23.40716288 0.04054075 27.18669128 0.05158997 C31.04075097 0.06180489 34.8948168 0.06638378 38.74888611 0.07142639 C46.31596085 0.08216306 53.88300407 0.09923903 61.45005798 0.12025452 C61.12005798 0.78025452 60.79005798 1.44025452 60.45005798 2.12025452 C59.69250717 2.11359268 58.93495636 2.10693085 58.15444946 2.10006714 C51.01807356 2.0399762 43.88182018 1.99429061 36.74525738 1.964818 C33.07619123 1.94915646 29.40733398 1.92790977 25.73838806 1.89393616 C22.19816851 1.86135937 18.65814999 1.84340518 15.11779213 1.83562279 C13.10858143 1.82737527 11.09945171 1.80395314 9.09036255 1.78036499 C7.86932327 1.7801384 6.648284 1.7799118 5.39024353 1.77967834 C4.31324692 1.77301651 3.23625031 1.76635468 2.12661743 1.75949097 C-0.92266023 2.17049183 -1.61640077 2.83975127 -3.54994202 5.12025452 C-4.20994202 5.12025452 -4.86994202 5.12025452 -5.54994202 5.12025452 C-3.14414646 0.14827702 -3.14414646 0.14827702 0 0 Z " fill="#CDCECD" transform="translate(964.5499420166016,503.87974548339844)"/>
<path d="M0 0 C8.8993731 -0.37691463 18.3530346 0.22747589 26.9921875 2.53125 C30.05224635 3.24566063 33.11824838 3.3595161 36.25 3.5625 C37.51328125 3.64628906 38.7765625 3.73007812 40.078125 3.81640625 C41.04234375 3.87699219 42.0065625 3.93757813 43 4 C43 4.33 43 4.66 43 5 C36.96860464 5.8864765 31.47860995 6.02221262 25.4375 5.25 C24.2920874 5.11392334 24.2920874 5.11392334 23.12353516 4.97509766 C15.34968429 4.00596933 7.67246975 2.56794341 0 1 C0 0.67 0 0.34 0 0 Z " fill="#A66063" transform="translate(704,337)"/>
<path d="M0 0 C0.33 1.32 0.66 2.64 1 4 C2.32 4.33 3.64 4.66 5 5 C-3.415 5.495 -3.415 5.495 -12 6 C-12 4.35 -12 2.7 -12 1 C-7.93631321 0.22596442 -4.13574827 -0.0984702 0 0 Z " fill="#E4E0DD" transform="translate(1054,282)"/>
<path d="M0 0 C6.27 0 12.54 0 19 0 C19 0.33 19 0.66 19 1 C17.02 1.33 15.04 1.66 13 2 C12.67 2.99 12.34 3.98 12 5 C8.37 5 4.74 5 1 5 C0.67 3.35 0.34 1.7 0 0 Z " fill="#E1DCDA" transform="translate(1017,368)"/>
<path d="M0 0 C-4.41059735 5.81396923 -12.1698595 6.79468109 -19 8 C-20.9996441 8.03772913 -23.00054061 8.04649906 -25 8 C-20.91249628 5.27499752 -16.555832 3.92745982 -11.9375 2.3125 C-11.01388672 1.97927734 -10.09027344 1.64605469 -9.13867188 1.30273438 C-8.25630859 0.99271484 -7.37394531 0.68269531 -6.46484375 0.36328125 C-5.25235962 -0.06537231 -5.25235962 -0.06537231 -4.01538086 -0.50268555 C-2 -1 -2 -1 0 0 Z " fill="#AF7374" transform="translate(992,303)"/>
<path d="M0 0 C0.99 0.33 1.98 0.66 3 1 C2.67 14.2 2.34 27.4 2 41 C1.67 41 1.34 41 1 41 C0.3122966 27.32274995 -0.15387701 13.69505348 0 0 Z " fill="#B6B7B6" transform="translate(1334,463)"/>
<path d="M0 0 C-0.63156995 5.05255964 -2.13459373 9.29593201 -4 14 C-4.84062397 10.90226756 -5.08935201 8.21667249 -5 5 C-6.65 4.67 -8.3 4.34 -10 4 C-10 4.66 -10 5.32 -10 6 C-13.13498292 7.85776765 -15.37471432 8.20140476 -19 8 C-19 7.34 -19 6.68 -19 6 C-16.20964954 4.99619084 -13.41785145 3.9968055 -10.625 3 C-9.43390625 2.57074219 -9.43390625 2.57074219 -8.21875 2.1328125 C-7.45820313 1.86210937 -6.69765625 1.59140625 -5.9140625 1.3125 C-4.8614624 0.93544922 -4.8614624 0.93544922 -3.78759766 0.55078125 C-2 0 -2 0 0 0 Z " fill="#BA8A8C" transform="translate(307,305)"/>
<path d="M0 0 C0.33 0.66 0.66 1.32 1 2 C-0.1241176 3.29243468 -1.24932592 4.58392075 -2.375 5.875 C-3.00148438 6.59429687 -3.62796875 7.31359375 -4.2734375 8.0546875 C-5.47426834 9.4076598 -6.7208345 10.7208345 -8 12 C-7.34 12.66 -6.68 13.32 -6 14 C-7.28813342 14.83878455 -8.58063256 15.67086783 -9.875 16.5 C-10.59429688 16.9640625 -11.31359375 17.428125 -12.0546875 17.90625 C-14 19 -14 19 -16 19 C-14.29906612 14.68388029 -11.13515241 11.68761387 -8 8.375 C-7.18015625 7.49714844 -7.18015625 7.49714844 -6.34375 6.6015625 C-4.25718606 4.37180299 -2.15944305 2.15944305 0 0 Z " fill="#717575" transform="translate(553,196)"/>
<path d="M0 0 C0 3 0 3 -1.93359375 5.0859375 C-3.59885299 6.60831178 -5.2655143 8.12915387 -6.93359375 9.6484375 C-9.16924698 12.19260242 -9.67709376 13.67700124 -10 17 C-10.86625 17.12375 -10.86625 17.12375 -11.75 17.25 C-14.6159304 18.20531013 -15.9990764 19.78469173 -18 22 C-18.66 21.67 -19.32 21.34 -20 21 C-10.75108653 10.62267878 -10.75108653 10.62267878 -6 6 C-4.89451177 4.89715648 -3.7903835 3.79294834 -2.6875 2.6875 C-1.800625 1.800625 -0.91375 0.91375 0 0 Z " fill="#D2D4D4" transform="translate(377,339)"/>
<path d="M0 0 C1.32 0.66 2.64 1.32 4 2 C0.25 5 0.25 5 -2 5 C-2.2475 5.7425 -2.495 6.485 -2.75 7.25 C-4.11138952 10.24505695 -5.6573421 11.72833173 -8 14 C-8.515625 14.9075 -9.03125 15.815 -9.5625 16.75 C-10.036875 17.4925 -10.51125 18.235 -11 19 C-11.99 19 -12.98 19 -14 19 C-12.04487581 16.2060731 -10.08535738 13.41525696 -8.125 10.625 C-7.56941406 9.8309375 -7.01382813 9.036875 -6.44140625 8.21875 C-5.90644531 7.45820313 -5.37148438 6.69765625 -4.8203125 5.9140625 C-4.32805176 5.2123291 -3.83579102 4.5105957 -3.32861328 3.78759766 C-2 2 -2 2 0 0 Z " fill="#D1D4D4" transform="translate(992,461)"/>
<path d="M0 0 C-0.33 0.66 -0.66 1.32 -1 2 C-4.47102505 2.86775626 -7.96551879 3.47695166 -11.484375 4.12109375 C-14.88554747 4.97138687 -17.039683 6.20862868 -20 8 C-23.8125 7.6875 -23.8125 7.6875 -27 7 C-24.44195272 5.29463515 -22.9441358 4.55666374 -20.09375 3.74609375 C-18.97806641 3.42415039 -18.97806641 3.42415039 -17.83984375 3.09570312 C-17.06769531 2.87849609 -16.29554688 2.66128906 -15.5 2.4375 C-13.96864699 1.99905753 -12.43739299 1.56026908 -10.90625 1.12109375 C-10.22884766 0.9295874 -9.55144531 0.73808105 -8.85351562 0.54077148 C-3.3919344 -1.0526693 -3.3919344 -1.0526693 0 0 Z " fill="#B88284" transform="translate(946,319)"/>
<path d="M0 0 C1.32 0.33 2.64 0.66 4 1 C3.34 1.66 2.68 2.32 2 3 C1.67110612 4.85536424 1.67110612 4.85536424 1.68115234 6.99072266 C1.66128265 7.81142242 1.64141296 8.63212219 1.62094116 9.47769165 C1.60938995 10.36419403 1.59783875 11.25069641 1.5859375 12.1640625 C1.56657135 13.07127045 1.5472052 13.97847839 1.5272522 14.91317749 C1.46736784 17.81702204 1.42103584 20.72090604 1.375 23.625 C1.33682835 25.59116333 1.29777711 27.5573098 1.2578125 29.5234375 C1.16165909 34.3488217 1.077661 39.17428418 1 44 C0.67 44 0.34 44 0 44 C0 29.48 0 14.96 0 0 Z " fill="#B06D6D" transform="translate(658,441)"/>
<path d="M0 0 C4.25414623 -0.02465622 8.50825498 -0.04283899 12.76245117 -0.05493164 C14.21070073 -0.05997101 15.65894517 -0.06680253 17.10717773 -0.07543945 C19.18474588 -0.08752247 21.26224697 -0.09323211 23.33984375 -0.09765625 C24.59144287 -0.10289307 25.84304199 -0.10812988 27.13256836 -0.11352539 C30 0 30 0 31 1 C31.07244053 3.01964199 31.08377188 5.04167124 31.0625 7.0625 C31.05347656 8.16722656 31.04445313 9.27195312 31.03515625 10.41015625 C31.02355469 11.26480469 31.01195312 12.11945313 31 13 C30.67 13 30.34 13 30 13 C29.34 9.37 28.68 5.74 28 2 C14.14 1.505 14.14 1.505 0 1 C0 0.67 0 0.34 0 0 Z " fill="#E1D5D3" transform="translate(658,439)"/>
<path d="M0 0 C0 2 0 2 -1.3984375 3.4375 C-6.7064835 7.63358379 -11.30715871 9.20453936 -18 10 C-15.3137382 6.87084199 -12.04608071 5.2357324 -8.4375 3.3125 C-7.28121094 2.68988281 -6.12492187 2.06726563 -4.93359375 1.42578125 C-2 0 -2 0 0 0 Z " fill="#B47D80" transform="translate(277,317)"/>
<path d="M0 0 C-5.28922815 3.92194468 -9.32646591 6.71601983 -16 7 C-11.61400071 2.28911187 -6.62472719 -2.2082424 0 0 Z " fill="#AB6B6E" transform="translate(264,327)"/>
<path d="M0 0 C1.68762851 1.6454378 3.3540349 3.31288577 5 5 C5 5.33 5 5.66 5 6 C-5.56 6 -16.12 6 -27 6 C-27 5.67 -27 5.34 -27 5 C-17.76 5 -8.52 5 1 5 C0.67 3.35 0.34 1.7 0 0 Z " fill="#6A6D6E" transform="translate(1064,517)"/>
<path d="M0 0 C0.33 0.99 0.66 1.98 1 3 C-0.07421875 4.7890625 -0.07421875 4.7890625 -1.6875 6.625 C-2.20699219 7.23601562 -2.72648437 7.84703125 -3.26171875 8.4765625 C-5.19771568 10.17327891 -6.53325164 10.44952563 -9 11 C-9.33 11.66 -9.66 12.32 -10 13 C-11 15 -11 15 -13.125 15.75 C-14.053125 15.87375 -14.053125 15.87375 -15 16 C-11.6390582 11.74939714 -8.18707429 8.4743808 -4 5 C-2.62294236 3.36927384 -1.27277889 1.7133562 0 0 Z " fill="#B47A7E" transform="translate(1257,246)"/>
<path d="M0 0 C0.33 0 0.66 0 1 0 C1 4.62 1 9.24 1 14 C0.34 12.68 -0.32 11.36 -1 10 C-1.99 12.31 -2.98 14.62 -4 17 C-4.66 17 -5.32 17 -6 17 C-4.33846988 11.14340094 -2.52958084 5.5409866 0 0 Z " fill="#808181" transform="translate(1250,139)"/>
<path d="M0 0 C0.33 0.99 0.66 1.98 1 3 C1.66 3.66 2.32 4.32 3 5 C-0.65333143 7.63379708 -3.48521602 9.46884894 -8 10 C-6.34908222 5.70761377 -3.26245434 3.1206085 0 0 Z " fill="#AC7273" transform="translate(184,390)"/>
<path d="M0 0 C0.99 0.33 1.98 0.66 3 1 C0.16667533 4.04516202 -2.65500311 6.16868601 -6.25 8.25 C-7.14203125 8.77078125 -8.0340625 9.2915625 -8.953125 9.828125 C-9.96632813 10.40820312 -9.96632813 10.40820312 -11 11 C-10.66938569 8.01785896 -10.09579935 7.0860134 -7.8203125 5.04296875 C-6.93085937 4.43066406 -6.04140625 3.81835938 -5.125 3.1875 C-4.24070312 2.56230469 -3.35640625 1.93710937 -2.4453125 1.29296875 C-1.63835938 0.86628906 -0.83140625 0.43960937 0 0 Z " fill="#AC6A6A" transform="translate(755,454)"/>
<path d="M0 0 C0.66 0 1.32 0 2 0 C1.35511216 2.66242852 0.63043343 5.27759629 -0.19140625 7.890625 C-0.41376953 8.59960938 -0.63613281 9.30859375 -0.86523438 10.0390625 C-1.09533203 10.76867187 -1.32542969 11.49828125 -1.5625 12.25 C-1.79646484 12.99507813 -2.03042969 13.74015625 -2.27148438 14.5078125 C-2.84662313 16.33886649 -3.4231725 18.1694773 -4 20 C-4.33 20 -4.66 20 -5 20 C-4.40859432 7.39694101 -4.40859432 7.39694101 -1 2 C-0.67 1.34 -0.34 0.68 0 0 Z " fill="#B67F80" transform="translate(1096,309)"/>
<path d="M0 0 C0.33 0.99 0.66 1.98 1 3 C-1.05336006 5.13453242 -3.11680465 7.25739569 -5.1875 9.375 C-5.76564453 9.97828125 -6.34378906 10.5815625 -6.93945312 11.203125 C-10.08031481 14.39722163 -12.56898144 16.74829984 -17 18 C-14.64309231 14.75925192 -12.09939798 12.14587257 -9.0625 9.5625 C-5.6094545 6.61934346 -2.78856263 3.57284587 0 0 Z " fill="#D8D9D8" transform="translate(1225,223)"/>
<path d="M0 0 C0.33 0 0.66 0 1 0 C1 3.96 1 7.92 1 12 C1.66 12 2.32 12 3 12 C2.34 14.64 1.68 17.28 1 20 C0.34 20 -0.32 20 -1 20 C-1.11044961 13.26257354 -0.70132913 6.70019789 0 0 Z " fill="#7C7D7C" transform="translate(1106,388)"/>
<path d="M0 0 C4.92715996 -0.46192125 8.50732625 1.1724717 13 3 C12.01 3.495 12.01 3.495 11 4 C11.33 4.99 11.66 5.98 12 7 C7.76570244 5.68938409 3.92592596 4.05643741 0 2 C0 1.34 0 0.68 0 0 Z " fill="#C2A09F" transform="translate(584,312)"/>
<path d="M0 0 C-2.30766813 2.7339253 -3.8296743 3.43539772 -7.375 3.75 C-10.77206138 4.03262664 -13.69363804 3.95991154 -17 3 C-14.20261218 1.4932252 -11.59677568 0.51775885 -8.5 -0.1875 C-7.7471875 -0.36667969 -6.994375 -0.54585938 -6.21875 -0.73046875 C-3.85166621 -1.01801942 -2.25455985 -0.72248395 0 0 Z " fill="#D0D1D1" transform="translate(368,279)"/>
<path d="M0 0 C0.33 0 0.66 0 1 0 C1.27603012 2.91631827 1.52158705 5.82989715 1.75 8.75 C1.83121094 9.575 1.91242188 10.4 1.99609375 11.25 C2.05410156 12.04921875 2.11210938 12.8484375 2.171875 13.671875 C2.2347168 14.4050293 2.29755859 15.13818359 2.36230469 15.89355469 C2 18 2 18 -2 22 C-1.34 14.74 -0.68 7.48 0 0 Z " fill="#C9CAC9" transform="translate(1250,153)"/>
<path d="M0 0 C0.33 0.66 0.66 1.32 1 2 C-0.94579029 5.79461428 -3.50438588 9.0135892 -6.1875 12.3125 C-6.90292969 13.19550781 -7.61835937 14.07851563 -8.35546875 14.98828125 C-9.16951172 15.98408203 -9.16951172 15.98408203 -10 17 C-10.66 16.67 -11.32 16.34 -12 16 C-8.04 10.72 -4.08 5.44 0 0 Z " fill="#7B7E7F" transform="translate(974,448)"/>
<path d="M0 0 C0.66 0.33 1.32 0.66 2 1 C-2.29 5.29 -6.58 9.58 -11 14 C-11.66 13.67 -12.32 13.34 -13 13 C-11.58791833 11.39179588 -10.17013964 9.78859292 -8.75 8.1875 C-7.96109375 7.29417969 -7.1721875 6.40085937 -6.359375 5.48046875 C-4.34120555 3.35871775 -2.40083295 1.65745577 0 0 Z " fill="#727676" transform="translate(1141,308)"/>
<path d="M0 0 C0.66 0.33 1.32 0.66 2 1 C0.30121834 4.69734833 -0.84385675 5.91635183 -4.5 7.875 C-8 9 -8 9 -11 8 C-7.37 5.36 -3.74 2.72 0 0 Z " fill="#B2757A" transform="translate(1240,262)"/>
<path d="M0 0 C2.64 0.33 5.28 0.66 8 1 C8.33 2.32 8.66 3.64 9 5 C3.5 5.36666667 3.5 5.36666667 1.125 3.625 C0 2 0 2 0 0 Z " fill="#AC6F6E" transform="translate(595,316)"/>
<path d="M0 0 C1.66926454 0.97473126 3.33535642 1.95489789 5 2.9375 C6.3921875 3.75541016 6.3921875 3.75541016 7.8125 4.58984375 C8.534375 5.05519531 9.25625 5.52054687 10 6 C10 6.33 10 6.66 10 7 C7.36 7.33 4.72 7.66 2 8 C0.23537317 4.91190305 0 3.76687864 0 0 Z " fill="#E1DCDA" transform="translate(210,496)"/>
<path d="M0 0 C-6.65594553 2.94397591 -12.75841435 3.64999003 -20 4 C-16.76538003 1.84358669 -14.32927039 1.18899027 -10.5625 0.3125 C-9.42941406 0.04050781 -8.29632812 -0.23148437 -7.12890625 -0.51171875 C-4.25083111 -0.96085657 -2.68974913 -0.98469931 0 0 Z " fill="#BA8083" transform="translate(919,327)"/>
<path d="M0 0 C0 3.25811062 -0.5522078 5.10441559 -2 8 C-2.99 8.33 -3.98 8.66 -5 9 C-5.33 11.64 -5.66 14.28 -6 17 C-7.48797799 13.13125722 -6.60943689 10.73096735 -5 7 C-3.43451073 4.56859948 -1.75264526 2.30611218 0 0 Z " fill="#B88686" transform="translate(205,446)"/>
<path d="M0 0 C6.43974581 0.62320121 12.67572401 1.64008262 19 3 C19 3.33 19 3.66 19 4 C11.90370975 4.31461385 6.31715405 4.44572039 0 1 C0 0.67 0 0.34 0 0 Z " fill="#B17071" transform="translate(612,320)"/>
<path d="M0 0 C-0.598125 0.268125 -1.19625 0.53625 -1.8125 0.8125 C-4.03137123 1.84934315 -4.03137123 1.84934315 -5.34375 3.5625 C-7.54412246 5.47225723 -8.82107764 5.31212706 -11.6875 5.1875 C-12.49574219 5.16042969 -13.30398438 5.13335937 -14.13671875 5.10546875 C-14.75160156 5.07066406 -15.36648438 5.03585937 -16 5 C-13.13879225 3.09252817 -10.64745007 1.99646294 -7.4375 0.8125 C-6.46683594 0.44769531 -5.49617187 0.08289063 -4.49609375 -0.29296875 C-2 -1 -2 -1 0 0 Z " fill="#B88082" transform="translate(983,306)"/>
<path d="M0 0 C4.81033104 2.54664585 8.32442148 4.99027798 12 9 C8.4257023 8.67506385 6.44287547 8.36129314 3.625 6.0625 C2 4 2 4 2 2 C1.34 2 0.68 2 0 2 C0 1.34 0 0.68 0 0 Z " fill="#AC6E70" transform="translate(757,502)"/>
<path d="M0 0 C0.33 0.66 0.66 1.32 1 2 C0.09522263 3.46573934 -0.82434141 4.92235756 -1.75 6.375 C-2.26046875 7.18710937 -2.7709375 7.99921875 -3.296875 8.8359375 C-5.0673335 11.08555679 -6.36907419 11.95906848 -9 13 C-7.50923566 9.7173068 -5.61379679 7.06922559 -3.375 4.25 C-2.74335937 3.45078125 -2.11171875 2.6515625 -1.4609375 1.828125 C-0.97882812 1.22484375 -0.49671875 0.6215625 0 0 Z " fill="#7A7D7E" transform="translate(942,490)"/>
<path d="M0 0 C0.33 1.32 0.66 2.64 1 4 C-4.14285714 8.42857143 -4.14285714 8.42857143 -8 9 C-6.4169423 4.7257442 -3.49431596 2.73468206 0 0 Z " fill="#808182" transform="translate(257,311)"/>
<path d="M0 0 C1 2 1 2 0.78515625 3.921875 C-0.19111586 6.505839 -1.41867213 7.53493771 -3.5625 9.25 C-4.20316406 9.77078125 -4.84382813 10.2915625 -5.50390625 10.828125 C-5.99761719 11.21484375 -6.49132813 11.6015625 -7 12 C-7.66 11.67 -8.32 11.34 -9 11 C-6.03 7.37 -3.06 3.74 0 0 Z " fill="#D1D2D1" transform="translate(1134,357)"/>
<path d="M0 0 C-5.94 -0.33 -11.88 -0.66 -18 -1 C-18 -1.33 -18 -1.66 -18 -2 C-15.56305726 -2.24878997 -13.12761611 -2.47463404 -10.6875 -2.6875 C-9.65206055 -2.79674805 -9.65206055 -2.79674805 -8.59570312 -2.90820312 C-3.33984375 -3.33984375 -3.33984375 -3.33984375 0 0 Z " fill="#D2D3D2" transform="translate(773,112)"/>
<path d="M0 0 C1 3 1 3 -0.125 5.625 C-2 8 -2 8 -4.6875 8.8125 C-5.450625 8.874375 -6.21375 8.93625 -7 9 C-6.02180976 7.68677212 -5.0424189 6.37443848 -4.0625 5.0625 C-3.51722656 4.33160156 -2.97195313 3.60070312 -2.41015625 2.84765625 C-1 1 -1 1 0 0 Z " fill="#717576" transform="translate(433,482)"/>
<path d="M0 0 C0.33 0 0.66 0 1 0 C1 1.65 1 3.3 1 5 C1.99 5.33 2.98 5.66 4 6 C2.69593116 8.01920337 1.36176581 10.01924973 0 12 C-0.33 12 -0.66 12 -1 12 C-0.67 8.04 -0.34 4.08 0 0 Z " fill="#747676" transform="translate(339,377)"/>
<path d="M0 0 C3.63 0 7.26 0 11 0 C10.67 0.99 10.34 1.98 10 3 C6.9375 4.1875 6.9375 4.1875 4 5 C4 4.34 4 3.68 4 3 C4.66 3 5.32 3 6 3 C6 2.34 6 1.68 6 1 C4.02 1 2.04 1 0 1 C0 0.67 0 0.34 0 0 Z " fill="#B17F7E" transform="translate(767,442)"/>
<path d="M0 0 C0.66 0 1.32 0 2 0 C3 1 4 2 5 3 C7.09989652 4.17574711 7.09989652 4.17574711 9 5 C9 5.66 9 6.32 9 7 C6.03 6.505 6.03 6.505 3 6 C3 5.34 3 4.68 3 4 C2.34 4 1.68 4 1 4 C0.67 2.68 0.34 1.36 0 0 Z " fill="#B57D7D" transform="translate(747,495)"/>
<path d="M0 0 C0 0.66 0 1.32 0 2 C-3.66987221 3.22329074 -6.33967822 2.88021006 -10.1875 2.5625 C-11.45980469 2.46066406 -12.73210938 2.35882813 -14.04296875 2.25390625 C-15.01878906 2.17011719 -15.99460937 2.08632813 -17 2 C-17 1.67 -17 1.34 -17 1 C-15.10440036 0.83069605 -13.20850769 0.66467136 -11.3125 0.5 C-10.25675781 0.4071875 -9.20101562 0.314375 -8.11328125 0.21875 C-5.39363975 0.0276585 -2.72460144 -0.04043935 0 0 Z " fill="#DABEBC" transform="translate(942,371)"/>
<path d="M0 0 C3.96 0 7.92 0 12 0 C12 0.66 12 1.32 12 2 C12.66 2.33 13.32 2.66 14 3 C4.58997722 2.03644647 4.58997722 2.03644647 0 1 C0 0.67 0 0.34 0 0 Z " fill="#C9C9C8" transform="translate(632,238)"/>
<path d="M0 0 C0.66 0.33 1.32 0.66 2 1 C1.375 2.9375 1.375 2.9375 0 5 C-3.125 5.75 -3.125 5.75 -6 6 C-4 4 -2 2 0 0 Z " fill="#B27879" transform="translate(237,340)"/>
<path d="M0 0 C0.99 0 1.98 0 3 0 C3.33 1.32 3.66 2.64 4 4 C2.741875 3.87625 1.48375 3.7525 0.1875 3.625 C-0.87404297 3.52058594 -0.87404297 3.52058594 -1.95703125 3.4140625 C-4 3 -4 3 -7 1 C-5.5459375 1.0309375 -5.5459375 1.0309375 -4.0625 1.0625 C-1.12534105 1.35618499 -1.12534105 1.35618499 0 0 Z " fill="#CBCCCC" transform="translate(1061,199)"/>
<path d="M0 0 C0.66 0.33 1.32 0.66 2 1 C-0.25 3.5625 -0.25 3.5625 -3 6 C-4.32 5.67 -5.64 5.34 -7 5 C-4.69 3.35 -2.38 1.7 0 0 Z " fill="#BA8485" transform="translate(730,449)"/>
<path d="M0 0 C1.32 0.66 2.64 1.32 4 2 C1.03 4.475 1.03 4.475 -2 7 C-2.66 6.67 -3.32 6.34 -4 6 C-2.68 4.02 -1.36 2.04 0 0 Z " fill="#AD6E6F" transform="translate(208,443)"/>
<path d="M0 0 C-1.32 0.33 -2.64 0.66 -4 1 C-4 1.66 -4 2.32 -4 3 C-5.98 3 -7.96 3 -10 3 C-9 1 -9 1 -6.6875 -0.1875 C-3.88010429 -1.03624754 -2.698065 -0.99928333 0 0 Z " fill="#A5595C" transform="translate(256,362)"/>
<path d="M0 0 C1.25 1.5625 1.25 1.5625 2 4 C0.93237266 6.57001015 -0.46544943 8.6530403 -2 11 C-2.66 11 -3.32 11 -4 11 C-3.52269162 9.5410574 -3.04308958 8.08286504 -2.5625 6.625 C-2.29566406 5.81289063 -2.02882813 5.00078125 -1.75390625 4.1640625 C-1 2 -1 2 0 0 Z " fill="#DBC7C5" transform="translate(1099,306)"/>
<path d="M0 0 C0.66 1.32 1.32 2.64 2 4 C1.34 4.66 0.68 5.32 0 6 C-1.32 6 -2.64 6 -4 6 C-2.84826645 3.53199953 -1.95216435 1.95216435 0 0 Z " fill="#BE9999" transform="translate(180,394)"/>
<path d="M0 0 C-3.28463659 2.18975773 -6.20696275 2.99806563 -10 4 C-10 3.34 -10 2.68 -10 2 C-6.37626474 -0.79545292 -4.37834956 -1.37605272 0 0 Z " fill="#B06E72" transform="translate(262,361)"/>
<path d="M0 0 C1.5 1.25 1.5 1.25 3 3 C3 4.32 3 5.64 3 7 C-1.875 5.25 -1.875 5.25 -3 3 C-2.34 3 -1.68 3 -1 3 C-0.67 2.01 -0.34 1.02 0 0 Z " fill="#B8908E" transform="translate(1340,347)"/>
<path d="M0 0 C0.66 0.33 1.32 0.66 2 1 C1.67 2.32 1.34 3.64 1 5 C-1.31 5 -3.62 5 -6 5 C-4.06745228 2.9754262 -2.36841312 1.57894208 0 0 Z " fill="#D0D2D1" transform="translate(390,330)"/>
<path d="M0 0 C7.50769231 -0.36923077 7.50769231 -0.36923077 10 1.5 C10.495 2.2425 10.495 2.2425 11 3 C9.741875 2.87625 8.48375 2.7525 7.1875 2.625 C6.12595703 2.52058594 6.12595703 2.52058594 5.04296875 2.4140625 C3 2 3 2 0 0 Z " fill="#BB8889" transform="translate(1223,288)"/>
<path d="M0 0 C3.96 0.99 3.96 0.99 8 2 C8 2.33 8 2.66 8 3 C6.35 3 4.7 3 3 3 C2.67 3.66 2.34 4.32 2 5 C0.68 4.34 -0.64 3.68 -2 3 C-1.01 3 -0.02 3 1 3 C0.67 2.01 0.34 1.02 0 0 Z " fill="#797D7B" transform="translate(1004,237)"/>
<path d="M0 0 C-0.75 1.9375 -0.75 1.9375 -2 4 C-4 4.8125 -4 4.8125 -6 5 C-6.66 4.67 -7.32 4.34 -8 4 C-2.25 0 -2.25 0 0 0 Z " fill="#B47A7B" transform="translate(699,471)"/>
<path d="M0 0 C0.33 0.66 0.66 1.32 1 2 C-0.91522803 6.03205902 -1.85351878 6.92675939 -6 9 C-4.02 6.03 -2.04 3.06 0 0 Z " fill="#797C7E" transform="translate(460,448)"/>
<path d="M0 0 C-1.125 1.5625 -1.125 1.5625 -3 3 C-6.1875 2.6875 -6.1875 2.6875 -9 2 C-4.13793103 -1.24137931 -4.13793103 -1.24137931 0 0 Z " fill="#B47A7C" transform="translate(288,314)"/>
<path d="M0 0 C0.66 0 1.32 0 2 0 C2 0.66 2 1.32 2 2 C1.34 2 0.68 2 0 2 C-0.2475 2.639375 -0.495 3.27875 -0.75 3.9375 C-2 6 -2 6 -4.078125 6.62890625 C-4.71234375 6.75136719 -5.3465625 6.87382812 -6 7 C-5.04882866 5.8274869 -4.08882991 4.66212985 -3.125 3.5 C-2.59132813 2.8503125 -2.05765625 2.200625 -1.5078125 1.53125 C-0.76144531 0.77328125 -0.76144531 0.77328125 0 0 Z " fill="#7A7E7F" transform="translate(376,299)"/>
<path d="M0 0 C2.79872437 2.52788007 4.45773019 4.20411134 5 8 C2 7 2 7 0 4 C0 2.68 0 1.36 0 0 Z " fill="#B8817F" transform="translate(1314,297)"/>
<path d="M0 0 C1.68762851 1.6454378 3.3540349 3.31288577 5 5 C5 5.33 5 5.66 5 6 C3.02 6 1.04 6 -1 6 C-0.34 5.67 0.32 5.34 1 5 C0.67 3.35 0.34 1.7 0 0 Z " fill="#747777" transform="translate(1064,517)"/>
<path d="M0 0 C0 3.61537605 -0.89229241 5.11165997 -3 8 C-3.99 8 -4.98 8 -6 8 C-4.02 5.36 -2.04 2.72 0 0 Z " fill="#C1C3C4" transform="translate(984,472)"/>
<path d="M0 0 C1.0209375 0.2165625 1.0209375 0.2165625 2.0625 0.4375 C5.36273082 1.06945909 8.67144426 1.54313941 12 2 C12 2.33 12 2.66 12 3 C10.56344146 3.08131463 9.1255517 3.13933559 7.6875 3.1875 C6.48673828 3.23970703 6.48673828 3.23970703 5.26171875 3.29296875 C2.52148416 2.93801608 1.70828921 2.10633718 0 0 Z " fill="#AA6366" transform="translate(641,326)"/>
<path d="M0 0 C-0.99 1.485 -0.99 1.485 -2 3 C-4.31 2.67 -6.62 2.34 -9 2 C-5.5647952 -0.29013653 -4.014669 -0.17842973 0 0 Z " fill="#B17576" transform="translate(928,324)"/>
<path d="M0 0 C-0.33 0.66 -0.66 1.32 -1 2 C-4.0625 2.625 -4.0625 2.625 -7 3 C-7 2.01 -7 1.02 -7 0 C-3.86650268 -1.04449911 -3.01031744 -0.93423645 0 0 Z " fill="#B17577" transform="translate(946,319)"/>
<path d="M0 0 C0 0.66 0 1.32 0 2 C-0.66 2 -1.32 2 -2 2 C-2.33 2.99 -2.66 3.98 -3 5 C-5.0625 5.6875 -5.0625 5.6875 -7 6 C-6.67 5.01 -6.34 4.02 -6 3 C-5.34 3 -4.68 3 -4 3 C-4 2.34 -4 1.68 -4 1 C-2 0 -2 0 0 0 Z " fill="#A86466" transform="translate(281,316)"/>
<path d="M0 0 C3.37462715 0.54723683 5.08235 1.0549 8 3 C5.03 3 2.06 3 -1 3 C-0.67 2.01 -0.34 1.02 0 0 Z " fill="#D7D9D8" transform="translate(887,195)"/>
</svg>
